<svg xmlns="http://www.w3.org/2000/svg" xmlns:xlink="http://www.w3.org/1999/xlink" viewBox="0 0 224.43 54.31"><defs><style>.cls-1{fill:#1bb6cf;}.cls-2{fill:#010101;}.cls-3{fill:#575da9;}.cls-4{fill:url(#linear-gradient);}</style><linearGradient id="linear-gradient" x1="0.85" y1="36.59" x2="28.05" y2="36.59" gradientUnits="userSpaceOnUse"><stop offset="0.06" stop-color="#1ab4cf"/><stop offset="0.66" stop-color="#525ca9"/><stop offset="1" stop-color="#6a58a5"/></linearGradient></defs><g id="Layer_2" data-name="Layer 2"><path class="cls-1" d="M34.15,40.33c0-4.24,0-8.49,0-12.74,0-.52.11-.72.68-.71,1.69,0,3.38,0,5.07,0,.4,0,.56.11.56.55q0,12.91,0,25.82c0,.41-.1.57-.54.56-1.73,0-3.47,0-5.2,0-.5,0-.57-.18-.57-.61C34.16,48.92,34.15,44.63,34.15,40.33Z"/><path class="cls-2" d="M224.42,47.79V42.32a8.52,8.52,0,0,0-.09-1.24,11.43,11.43,0,1,0-11.76,13.14c3.8,0,7.6,0,11.4,0,.4,0,.46-.12.46-.48C224.41,51.76,224.42,49.78,224.42,47.79Zm-6.2.58c-1.83,0-3.66,0-5.48,0a5.55,5.55,0,1,1,5.84-5.44v2.22c0,1,0,1.92,0,2.87C218.59,48.3,218.5,48.38,218.22,48.37Z"/><path class="cls-2" d="M189,31.43a10.93,10.93,0,0,1,6.85,3.33c.59.59,1.17,1.19,1.77,1.76.21.21.24.34,0,.56-1.19,1.19-2.38,2.38-3.54,3.59-.26.27-.4.23-.64,0-.59-.61-1.21-1.19-1.82-1.79a5.55,5.55,0,0,0-6.46-1,5.47,5.47,0,0,0-3,5.76,5.62,5.62,0,0,0,4.61,4.64,5.32,5.32,0,0,0,4.82-1.51c.62-.63,1.27-1.23,1.89-1.87.2-.2.31-.2.51,0,1.2,1.23,2.41,2.44,3.62,3.66.13.13.27.23.07.43a19.66,19.66,0,0,1-5,4.1,11.5,11.5,0,0,1-16.27-8.37C175.29,37.71,180.62,31.43,189,31.43Z"/><path class="cls-2" d="M105.71,36.46a11.46,11.46,0,0,0-1.85-1.14c.24-.19.44-.35.63-.52a8.3,8.3,0,0,0,3-6.32A9.17,9.17,0,0,0,100,19.32c-.88-.2-1.78-.3-2.66-.45H81.92c0,.06,0,.11,0,.16q0,17.4,0,34.78c0,.44.15.49.53.49h13A27.66,27.66,0,0,0,99.94,54a11.28,11.28,0,0,0,5.38-2.12,10.08,10.08,0,0,0,3.77-7.9A8.76,8.76,0,0,0,105.71,36.46ZM88,24.9c0-.3.07-.4.39-.4,2.82.05,5.64-.09,8.46.12a11.86,11.86,0,0,1,1.66.24,3.72,3.72,0,0,1,2.84,3.75,3.8,3.8,0,0,1-3.6,4.25,37.61,37.61,0,0,1-5.09.19c-1.41,0-2.82,0-4.23,0-.33,0-.43-.08-.43-.42Q88.06,28.77,88,24.9Zm14.73,19.28a4.31,4.31,0,0,1-3.2,4.06,13.58,13.58,0,0,1-3.81.41c-.85,0-1.7,0-2.55,0-1.57,0-3.15,0-4.72,0-.38,0-.45-.12-.45-.46,0-3,0-6.07,0-9.1,0-.29,0-.42.38-.41,3,.06,6.08-.12,9.11.12a6.87,6.87,0,0,1,3,.77A4.45,4.45,0,0,1,102.77,44.18Z"/><path class="cls-2" d="M146.8,47.78c0-1.69,0-3.39,0-5.09a11.44,11.44,0,1,0-11.91,11.52c3.81,0,7.63,0,11.45,0,.39,0,.47-.12.47-.49C146.79,51.76,146.8,49.77,146.8,47.78Zm-6.25.6c-1.81,0-3.62,0-5.43,0A5.54,5.54,0,1,1,140.94,43c0,.69,0,1.38,0,2.06,0,1,0,1.92,0,2.87C141,48.28,140.87,48.38,140.55,48.38Z"/><path class="cls-2" d="M173.34,48c0,1.91,0,3.83,0,5.74,0,.46-.14.56-.58.55-1.59,0-3.18,0-4.78,0-.44,0-.53-.14-.53-.55q0-5.44,0-10.89a5.51,5.51,0,0,0-5-5.54,5.59,5.59,0,0,0-6,4.3,5.51,5.51,0,0,0-.13,1.28c0,3.6,0,7.19,0,10.79,0,.51-.15.61-.63.61-1.59,0-3.19,0-4.78,0-.35,0-.51,0-.51-.46,0-3.72,0-7.44,0-11.16A11.45,11.45,0,0,1,173,40a10.89,10.89,0,0,1,.37,2.78C173.34,44.5,173.34,46.25,173.34,48Z"/><path class="cls-2" d="M120,38.58c0,5,0,10,0,15.06,0,.46-.09.61-.59.6-1.6,0-3.22,0-4.83,0-.38,0-.47-.12-.47-.49q0-15.16,0-30.33c0-.39.08-.53.5-.52q2.41,0,4.83,0c.46,0,.56.13.56.57C120,28.5,120,33.54,120,38.58Z"/><path class="cls-3" d="M45.8,53.82,60.54,33.28h-.71c-4.41,0-8.83,0-13.24,0-.55,0-.76-.09-.74-.7,0-1.69,0-3.37,0-5.06,0-.4.07-.57.53-.57H72.47l.37,0L58.18,47.49a1.12,1.12,0,0,0,.7.09c4.43,0,8.86,0,13.3,0,.51,0,.66.13.65.65,0,1.71,0,3.42,0,5.12,0,.36,0,.56-.48.56-8.78,0-17.56,0-26.34,0A.75.75,0,0,1,45.8,53.82Z"/><path class="cls-4" d="M24.67,36.46a11.56,11.56,0,0,0-1.86-1.14c.24-.19.44-.35.63-.52a8.24,8.24,0,0,0,3-6.32A9.17,9.17,0,0,0,19,19.32c-.88-.2-1.77-.3-2.66-.45H.87c0,.06,0,.11,0,.16q0,17.4,0,34.78c0,.44.15.49.53.49h13A27.58,27.58,0,0,0,18.89,54a11.28,11.28,0,0,0,5.38-2.12A10.05,10.05,0,0,0,28,44,8.78,8.78,0,0,0,24.67,36.46ZM7,24.9c0-.3.07-.4.38-.4,2.82.05,5.64-.09,8.46.12a11.45,11.45,0,0,1,1.66.24,3.72,3.72,0,0,1,2.84,3.75,3.79,3.79,0,0,1-3.6,4.25,37.61,37.61,0,0,1-5.09.19c-1.41,0-2.82,0-4.23,0-.33,0-.43-.08-.42-.42Q7,28.77,7,24.9ZM21.72,44.18a4.31,4.31,0,0,1-3.19,4.06,13.66,13.66,0,0,1-3.81.41c-.85,0-1.7,0-2.55,0-1.58,0-3.15,0-4.73,0-.37,0-.45-.12-.44-.46,0-3,0-6.07,0-9.1,0-.29,0-.42.37-.41,3,.06,6.08-.12,9.12.12a6.9,6.9,0,0,1,3,.77A4.44,4.44,0,0,1,21.72,44.18Z"/><path class="cls-2" d="M.9,10.93V2.41H2.55v8.52Z"/><path class="cls-2" d="M11.25,10.92V4H8.7V2.4h6.75V3.94H12.91v7Z"/><path class="cls-2" d="M28.86,13.74V12.4h.2a.88.88,0,0,0,.7-.24,1.32,1.32,0,0,0,.2-.81V4.46H31.5v6.79A2.83,2.83,0,0,1,31,13.11a2.19,2.19,0,0,1-1.77.63Zm1.86-10A.94.94,0,0,1,30,3.4a1,1,0,0,1-.3-.73,1,1,0,0,1,.3-.75,1,1,0,0,1,1.46,0,1.05,1.05,0,0,1,.3.74,1,1,0,0,1-.3.73A1,1,0,0,1,30.72,3.69Z"/><path class="cls-2" d="M44.58,7.67A3.56,3.56,0,0,1,44.33,9a3.1,3.1,0,0,1-.72,1.08,3.29,3.29,0,0,1-1.1.7,3.87,3.87,0,0,1-2.79,0,3.39,3.39,0,0,1-1.1-.7A3.28,3.28,0,0,1,37.91,9a3.58,3.58,0,0,1-.26-1.36,3.77,3.77,0,0,1,.25-1.35,3.1,3.1,0,0,1,.72-1.08,3.34,3.34,0,0,1,1.09-.7,3.71,3.71,0,0,1,1.4-.26,3.75,3.75,0,0,1,1.4.26,3.23,3.23,0,0,1,1.1.7,3.16,3.16,0,0,1,.72,1.07A3.58,3.58,0,0,1,44.58,7.67ZM41.12,9.61a1.8,1.8,0,0,0,1.37-.54A1.92,1.92,0,0,0,43,7.67a2,2,0,0,0-.51-1.4,1.81,1.81,0,0,0-1.38-.54,1.84,1.84,0,0,0-1.38.54,2,2,0,0,0-.52,1.4,1.93,1.93,0,0,0,.53,1.4A1.81,1.81,0,0,0,41.12,9.61Z"/><path class="cls-2" d="M50.5,1.63h1.55V5.34h0A2.2,2.2,0,0,1,53,4.56a2.72,2.72,0,0,1,1.28-.29,3.38,3.38,0,0,1,1.15.21,3,3,0,0,1,1,.63,3.23,3.23,0,0,1,.73,1,3.6,3.6,0,0,1,.28,1.49A3.58,3.58,0,0,1,57.16,9a3.16,3.16,0,0,1-.72,1.07,3.31,3.31,0,0,1-1.1.71A3.7,3.7,0,0,1,54,11a3.92,3.92,0,0,1-1.4-.24,3.15,3.15,0,0,1-1.08-.68A3.27,3.27,0,0,1,50.76,9a3.82,3.82,0,0,1-.25-1.42ZM54,9.6a1.84,1.84,0,0,0,1.38-.54,2,2,0,0,0,.52-1.41,1.91,1.91,0,0,0-.53-1.39,1.77,1.77,0,0,0-1.38-.54,1.8,1.8,0,0,0-1.37.54,2,2,0,0,0-.51,1.4,2,2,0,0,0,.51,1.4A1.82,1.82,0,0,0,54,9.6Z"/><path class="cls-2" d="M71.92,10.86V1.61h1.55v5.6h0L76,4.42h2L75,7.57l3.14,3.28h-2L73.5,8h0v2.87Z"/><path class="cls-2" d="M84.86,8.17v0a1.81,1.81,0,0,0,.63,1,1.89,1.89,0,0,0,1.2.37A1.82,1.82,0,0,0,88.22,9h1.65a3,3,0,0,1-1.2,1.47,3.45,3.45,0,0,1-2,.55,3.76,3.76,0,0,1-1.41-.25,3.37,3.37,0,0,1-1.09-.71A3,3,0,0,1,83.48,9a3.56,3.56,0,0,1-.25-1.35,3.58,3.58,0,0,1,.25-1.36,3.28,3.28,0,0,1,.71-1.07,3.41,3.41,0,0,1,1.1-.71,4,4,0,0,1,2.79,0,3.15,3.15,0,0,1,1.09.7,3.28,3.28,0,0,1,.71,1.07,3.78,3.78,0,0,1,.25,1.36v.55Zm1.83-2.53A1.93,1.93,0,0,0,85.54,6a1.84,1.84,0,0,0-.65.93v0h3.6v0A1.74,1.74,0,0,0,87.84,6,2,2,0,0,0,86.69,5.64Z"/><path class="cls-2" d="M104.66,10.82V1.57h1.55v9.25Z"/><path class="cls-2" d="M113.6,3.61a1,1,0,0,1-1-1,1,1,0,0,1,.3-.74,1,1,0,0,1,.73-.3,1,1,0,0,1,.73.3,1,1,0,0,1,.3.74,1,1,0,0,1-.3.73A1,1,0,0,1,113.6,3.61Zm-.76,7.2V4.38h1.55v6.43Z"/><path class="cls-2" d="M125.6,9.86h0a2.08,2.08,0,0,1-.77.76,2.26,2.26,0,0,1-1.12.27,3.22,3.22,0,0,1-1.08-.18,2.65,2.65,0,0,1-.93-.58,2.78,2.78,0,0,1-.64-1,4.09,4.09,0,0,1-.25-1.48V4.37h1.55V7.64A1.85,1.85,0,0,0,122.79,9a1.61,1.61,0,0,0,1.18.44A1.59,1.59,0,0,0,125.14,9a1.81,1.81,0,0,0,.46-1.35V4.37h1.55v6.22a3.88,3.88,0,0,1-.24,1.44,2.59,2.59,0,0,1-1.71,1.52,4.24,4.24,0,0,1-1.25.18,4.05,4.05,0,0,1-1.06-.13,3.11,3.11,0,0,1-.91-.4,2.73,2.73,0,0,1-.71-.69,3,3,0,0,1-.42-1h1.55a1.51,1.51,0,0,0,1.55.87,1.7,1.7,0,0,0,1.22-.41,1.81,1.81,0,0,0,.43-1.35Z"/><path class="cls-2" d="M134.91,8.12v0a1.88,1.88,0,0,0,.64,1,1.85,1.85,0,0,0,1.2.37,1.8,1.8,0,0,0,1.52-.61h1.66a3.08,3.08,0,0,1-1.2,1.47,3.46,3.46,0,0,1-2,.55,3.71,3.71,0,0,1-1.4-.25,3.37,3.37,0,0,1-1.09-.71,3.06,3.06,0,0,1-.72-1.07,3.66,3.66,0,0,1,0-2.71,3,3,0,0,1,.71-1.07,3.31,3.31,0,0,1,1.1-.71,3.68,3.68,0,0,1,1.4-.25,3.73,3.73,0,0,1,1.39.25,3.08,3.08,0,0,1,1.79,1.77,3.58,3.58,0,0,1,.26,1.36v.55Zm1.84-2.53a2,2,0,0,0-1.16.34,1.82,1.82,0,0,0-.64.93v0h3.59v0a1.7,1.7,0,0,0-.65-.92A1.92,1.92,0,0,0,136.75,5.59Z"/></g></svg>