<svg xmlns="http://www.w3.org/2000/svg" width="20" height="20" viewBox="0 0 20 20"><defs><style>.a{fill:#fff;}</style></defs><g transform="translate(-0.001 0)"><path class="a" d="M10,20a9.935,9.935,0,0,1-5.5-1.652L.657,19.576,1.9,15.861A9.893,9.893,0,0,1,0,10,10.01,10.01,0,0,1,10,0h0a10,10,0,0,1,0,20ZM6.049,4.269a1.511,1.511,0,0,0-1.069.378l-.028.029A3.386,3.386,0,0,0,3.91,7.214a5.839,5.839,0,0,0,1.23,3.163l.012.017c.011.015.032.045.063.09a12.434,12.434,0,0,0,5.144,4.546,8.849,8.849,0,0,0,3.064.864,2.728,2.728,0,0,0,.6-.07,2.956,2.956,0,0,0,2.052-1.488,2.664,2.664,0,0,0,.18-1.463c-.059-.1-.2-.171-.406-.272l-.033-.016-.145-.072c-.345-.174-1.8-.9-2.084-1a.759.759,0,0,0-.266-.054.582.582,0,0,0-.485.283l-.116.164a10.386,10.386,0,0,1-.7.927.588.588,0,0,1-.437.179.783.783,0,0,1-.3-.062l-.052-.021-.041-.017a7.7,7.7,0,0,1-2.36-1.487A9.274,9.274,0,0,1,7.131,9.3a.5.5,0,0,1,.116-.647l.007-.008c.091-.113.179-.208.265-.3.062-.066.125-.134.19-.209l.027-.031a1.707,1.707,0,0,0,.311-.452A.629.629,0,0,0,8,7.083c-.051-.109-.381-.915-.621-1.5l-.062-.15L7.064,4.8c-.2-.481-.348-.507-.664-.521H6.378C6.28,4.275,6.17,4.269,6.049,4.269Z" transform="translate(0.001 0)"/></g></svg>