<svg xmlns="http://www.w3.org/2000/svg" width="55" height="47.168" viewBox="0 0 55 47.168"><defs><style>.a{fill:#081351;}</style></defs><g transform="translate(0 0)"><path class="a" d="M3.306,51.565a3.931,3.931,0,0,1,.681-.05h38.8l-.846-.394a7.87,7.87,0,0,1-2.223-1.574L28.837,38.666a4.073,4.073,0,0,1-.571-5.214,3.935,3.935,0,0,1,5.9-.512L53.846,52.617a3.935,3.935,0,0,1,0,5.565l0,0L34.169,77.861a3.935,3.935,0,0,1-5.9-.394,4.073,4.073,0,0,1,.571-5.214L39.7,61.353a7.871,7.871,0,0,1,1.968-1.436l1.181-.531H4.2A4.073,4.073,0,0,1,.051,56.08,3.935,3.935,0,0,1,3.306,51.565Z" transform="translate(0 -31.842)"/></g></svg>