<svg xmlns="http://www.w3.org/2000/svg" width="196.833" height="197.503" viewBox="0 0 196.833 197.503"><defs><style>.a{fill:#d6a700;}.b{fill:#ffde59;}.c{fill:#fff;}</style></defs><g transform="translate(-219 -2565.995)"><g transform="translate(218.99 2565.995)"><path class="a" d="M218.752,220.753l-27.78-22.083a135.588,135.588,0,0,0-16.422,34.423h49.074Z" transform="translate(-174.54 -198.67)"/><path class="a" d="M302.883,220.753l27.78-22.083a135.575,135.575,0,0,1,16.41,34.435H298Z" transform="translate(-150.231 -198.67)"/><path class="b" d="M188.19,198.67H352.383V314.077a82.1,82.1,0,0,1-82.1,82.1h0a82.1,82.1,0,0,1-82.1-82.1Z" transform="translate(-171.854 -198.67)"/></g><g transform="translate(257.131 2664.697)"><path class="c" d="M34.15,34.081V27.26c0-.278.059-.385.364-.38h2.714c.214,0,.3.059.3.294V41c0,.22-.054.305-.289.3H34.455c-.268,0-.305-.1-.305-.327C34.155,38.68,34.15,36.383,34.15,34.081Z" transform="translate(-15.463 -11.759)"/><path class="c" d="M213.818,40.161V37.232a4.56,4.56,0,0,0-.048-.664,6.12,6.12,0,1,0-6.3,7.035h6.1c.214,0,.246-.064.246-.257C213.812,42.286,213.818,41.226,213.818,40.161Zm-3.319.311h-2.934a2.971,2.971,0,1,1,3.127-2.913v2.725c.005.15-.043.193-.193.187Z" transform="translate(-93.26 -13.845)"/><path class="c" d="M183.082,31.43a5.852,5.852,0,0,1,3.667,1.783c.316.316.626.637.948.942.112.112.129.182,0,.3-.637.637-1.274,1.274-1.9,1.922-.139.145-.214.123-.343,0-.316-.327-.648-.637-.974-.958a2.971,2.971,0,0,0-3.459-.535,2.929,2.929,0,0,0-1.606,3.084,3.009,3.009,0,0,0,2.468,2.484,2.848,2.848,0,0,0,2.581-.808c.332-.337.68-.659,1.012-1,.107-.107.166-.107.273,0,.642.659,1.29,1.306,1.938,1.96.07.07.145.123.037.23a10.526,10.526,0,0,1-2.677,2.2,6.157,6.157,0,0,1-8.711-4.481C175.742,34.792,178.6,31.43,183.082,31.43Z" transform="translate(-81.488 -13.873)"/><path class="c" d="M94.657,28.288a6.136,6.136,0,0,0-.99-.61c.128-.1.236-.187.337-.278a4.444,4.444,0,0,0,1.606-3.384,4.91,4.91,0,0,0-4.01-4.9c-.471-.107-.953-.161-1.424-.241H81.92V37.577c0,.236.08.262.284.262h6.96a14.81,14.81,0,0,0,2.4-.161,6.039,6.039,0,0,0,2.88-1.135,5.4,5.4,0,0,0,2.018-4.23,4.69,4.69,0,0,0-1.81-4.026ZM85.175,22.1c0-.161.037-.214.209-.214,1.51.027,3.02-.048,4.529.064a6.35,6.35,0,0,1,.889.128,1.992,1.992,0,0,1,1.521,2.008A2.035,2.035,0,0,1,90.4,26.36a20.136,20.136,0,0,1-2.725.1H85.405c-.177,0-.23-.043-.23-.225Q85.207,24.17,85.175,22.1Zm7.886,10.322a2.308,2.308,0,0,1-1.713,2.174,7.271,7.271,0,0,1-2.04.22H85.416c-.2,0-.241-.064-.241-.246V29.7c0-.155,0-.225.2-.22,1.606.032,3.255-.064,4.877.064a3.678,3.678,0,0,1,1.606.412,2.382,2.382,0,0,1,1.221,2.468Z" transform="translate(-37.656 -8.038)"/><path class="c" d="M136.17,40.142V37.417a6.125,6.125,0,1,0-6.377,6.168h6.13c.209,0,.252-.064.252-.262C136.165,42.273,136.17,41.207,136.17,40.142Zm-3.346.321h-2.907a2.966,2.966,0,1,1,3.116-2.88v2.639c.032.187-.037.241-.209.241Z" transform="translate(-57.17 -13.831)"/><path class="c" d="M162.682,40.172v3.073c0,.246-.075.3-.311.294h-2.559c-.236,0-.284-.075-.284-.294v-5.83a2.95,2.95,0,0,0-2.677-2.966,2.993,2.993,0,0,0-3.212,2.3,2.95,2.95,0,0,0-.07.685v5.777c0,.273-.08.327-.337.327h-2.559c-.187,0-.273,0-.273-.246V37.319a6.13,6.13,0,0,1,12.1-1.43,5.831,5.831,0,0,1,.2,1.488C162.682,38.3,162.682,39.235,162.682,40.172Z" transform="translate(-69.473 -13.744)"/><path class="c" d="M117.263,31.295v8.063c0,.246-.048.327-.316.321h-2.586c-.2,0-.252-.064-.252-.262V23.178c0-.209.043-.284.268-.278h2.586c.246,0,.3.07.3.305Z" transform="translate(-52.612 -9.91)"/><path class="c" d="M45.8,41.336l7.892-11H46.223c-.294,0-.407-.048-.4-.375V27.255c0-.214.037-.305.284-.305H60.277l-7.849,11A.6.6,0,0,0,52.8,38h7.121c.273,0,.353.07.348.348v2.741c0,.193,0,.3-.257.3h-14.1A.4.4,0,0,1,45.8,41.336Z" transform="translate(-20.875 -11.792)"/><path class="c" d="M13.612,28.288a6.189,6.189,0,0,0-1-.61c.128-.1.236-.187.337-.278a4.412,4.412,0,0,0,1.606-3.384,4.91,4.91,0,0,0-3.983-4.9c-.471-.107-.948-.161-1.424-.241H.87V37.577c0,.236.08.262.284.262h6.96a14.767,14.767,0,0,0,2.4-.161,6.039,6.039,0,0,0,2.88-1.135,5.381,5.381,0,0,0,2-4.219,4.7,4.7,0,0,0-1.783-4.037ZM4.152,22.1c0-.161.037-.214.2-.214,1.51.027,3.02-.048,4.529.064a6.13,6.13,0,0,1,.889.128,1.992,1.992,0,0,1,1.521,2.008A2.029,2.029,0,0,1,9.367,26.36a20.136,20.136,0,0,1-2.725.1H4.377c-.177,0-.23-.043-.225-.225Q4.152,24.17,4.152,22.1Zm7.881,10.322a2.308,2.308,0,0,1-1.708,2.174,7.313,7.313,0,0,1-2.04.22h-3.9c-.2,0-.241-.064-.236-.246V29.7c0-.155,0-.225.2-.22,1.606.032,3.255-.064,4.883.064a3.694,3.694,0,0,1,1.606.412,2.377,2.377,0,0,1,1.194,2.468Z" transform="translate(0 -8.038)"/><path class="c" d="M.9,6.972V2.41h.883V6.972Z" transform="translate(-0.013 -0.39)"/><path class="c" d="M10.065,6.962v-3.7H8.7V2.4h3.614v.825h-1.36V6.972Z" transform="translate(-3.639 -0.386)"/><path class="c" d="M28.86,8.1V7.384h.107a.471.471,0,0,0,.375-.128.707.707,0,0,0,.107-.434V3.133h.825V6.768a1.515,1.515,0,0,1-.268,1,1.173,1.173,0,0,1-.948.337Zm1-5.354a.5.5,0,0,1-.385-.182.535.535,0,0,1-.161-.391.547.547,0,0,1,.942-.4.562.562,0,0,1,.161.4.549.549,0,0,1-.557.551Z" transform="translate(-13.004 -0.016)"/><path class="c" d="M41.36,6.081a1.906,1.906,0,0,1-.134.712,1.66,1.66,0,0,1-.385.578,1.761,1.761,0,0,1-.589.375,2.072,2.072,0,0,1-1.494,0,1.815,1.815,0,0,1-.589-.375,1.756,1.756,0,0,1-.38-.578,1.917,1.917,0,0,1-.139-.728,2.019,2.019,0,0,1,.134-.723,1.66,1.66,0,0,1,.385-.578,1.788,1.788,0,0,1,.584-.375,1.986,1.986,0,0,1,.75-.139,2.008,2.008,0,0,1,.75.139,1.729,1.729,0,0,1,.589.375,1.692,1.692,0,0,1,.385.573A1.917,1.917,0,0,1,41.36,6.081ZM39.508,7.12a.964.964,0,0,0,.733-.289,1.028,1.028,0,0,0,.273-.75,1.071,1.071,0,0,0-.273-.75.969.969,0,0,0-.739-.289.985.985,0,0,0-.739.289,1.071,1.071,0,0,0-.278.75,1.033,1.033,0,0,0,.284.75A.969.969,0,0,0,39.508,7.12Z" transform="translate(-17.088 -1.245)"/><path class="c" d="M50.5,1.63h.83V3.616h0a1.178,1.178,0,0,1,.509-.418,1.456,1.456,0,0,1,.685-.155,1.81,1.81,0,0,1,.616.112,1.606,1.606,0,0,1,.535.337,1.729,1.729,0,0,1,.391.535,1.927,1.927,0,0,1,.15.8,1.917,1.917,0,0,1-.15.75,1.692,1.692,0,0,1-.385.573,1.772,1.772,0,0,1-.589.38,1.981,1.981,0,0,1-.717.118,2.1,2.1,0,0,1-.75-.128,1.687,1.687,0,0,1-.578-.364,1.751,1.751,0,0,1-.407-.578,2.045,2.045,0,0,1-.134-.76ZM52.374,5.9a.985.985,0,0,0,.739-.289,1.071,1.071,0,0,0,.278-.755,1.023,1.023,0,0,0-.284-.744.948.948,0,0,0-.739-.289.964.964,0,0,0-.733.289,1.071,1.071,0,0,0-.273.75,1.071,1.071,0,0,0,.273.75A.974.974,0,0,0,52.374,5.9Z" transform="translate(-23.058 -0.028)"/><path class="c" d="M71.92,6.562V1.61h.83v3h0L74.1,3.114h1.071L73.569,4.8,75.25,6.557H74.179L72.766,5.031h0V6.568Z" transform="translate(-33.009 -0.019)"/><path class="c" d="M84.1,6.353h0a.969.969,0,0,0,.337.535,1.012,1.012,0,0,0,.642.2A.974.974,0,0,0,85.9,6.8h.883a1.606,1.606,0,0,1-.642.787,1.847,1.847,0,0,1-1.071.294,2.013,2.013,0,0,1-.755-.134,1.8,1.8,0,0,1-.584-.38,1.606,1.606,0,0,1-.369-.568,2.033,2.033,0,0,1,0-1.451,1.756,1.756,0,0,1,.38-.573,1.826,1.826,0,0,1,.589-.38,2.142,2.142,0,0,1,1.494,0,1.687,1.687,0,0,1,.584.375,1.756,1.756,0,0,1,.38.573,2.024,2.024,0,0,1,.134.728v.294ZM85.082,5a1.033,1.033,0,0,0-.616.193.985.985,0,0,0-.348.5h1.927a.932.932,0,0,0-.348-.5A1.071,1.071,0,0,0,85.082,5Z" transform="translate(-38.265 -1.249)"/><path class="c" d="M104.66,6.522V1.57h.83V6.522Z" transform="translate(-48.221 0)"/><path class="c" d="M113.135,2.662a.545.545,0,0,1-.375-.932.552.552,0,0,1,.942.4.524.524,0,0,1-.568.535Zm-.407,3.855V3.074h.83V6.517Z" transform="translate(-51.911 0)"/><path class="c" d="M123.374,7.309h0a1.114,1.114,0,0,1-.412.407,1.21,1.21,0,0,1-.6.145,1.724,1.724,0,0,1-.578-.1,1.419,1.419,0,0,1-.5-.311,1.489,1.489,0,0,1-.343-.535,2.19,2.19,0,0,1-.134-.792V4.37h.83V6.121a.99.99,0,0,0,.23.728.862.862,0,0,0,.632.236.851.851,0,0,0,.626-.236.969.969,0,0,0,.246-.723V4.37h.83V7.7a2.077,2.077,0,0,1-.128.771,1.387,1.387,0,0,1-.916.814,2.27,2.27,0,0,1-.669.1,2.168,2.168,0,0,1-.568-.07,1.665,1.665,0,0,1-.487-.214,1.462,1.462,0,0,1-.38-.369,1.606,1.606,0,0,1-.225-.535h.83a.808.808,0,0,0,.83.466.91.91,0,0,0,.653-.22.969.969,0,0,0,.23-.723Z" transform="translate(-55.724 -1.301)"/><path class="c" d="M134.143,6.266h0a1.006,1.006,0,0,0,.343.535.99.99,0,0,0,.642.2.964.964,0,0,0,.814-.327h.889a1.649,1.649,0,0,1-.643.787,1.852,1.852,0,0,1-1.071.294,1.986,1.986,0,0,1-.75-.134,1.8,1.8,0,0,1-.584-.38,1.638,1.638,0,0,1-.385-.573,1.959,1.959,0,0,1,0-1.451,1.606,1.606,0,0,1,.38-.573,1.772,1.772,0,0,1,.589-.38,1.97,1.97,0,0,1,.75-.134,2,2,0,0,1,.744.134,1.649,1.649,0,0,1,.958.948,1.916,1.916,0,0,1,.139.728v.294Zm.985-1.355a1.071,1.071,0,0,0-.621.182.974.974,0,0,0-.343.5h1.922a.91.91,0,0,0-.348-.493A1.028,1.028,0,0,0,135.129,4.911Z" transform="translate(-61.509 -1.189)"/></g><g transform="translate(292.141 2596)"><path class="c" d="M258.19,203.1q.015-3,0-6c0-.23.056-.313.3-.308,2.185.039,4.373-.074,6.556.094a8.526,8.526,0,0,1,1.288.186,2.879,2.879,0,0,1,2.2,2.9,2.944,2.944,0,0,1-2.792,3.3,29.137,29.137,0,0,1-3.944.15c-1.092,0-2.186-.008-3.28.006C258.266,203.43,258.19,203.36,258.19,203.1Z" transform="translate(-238.721 -182.185)"/><path class="c" d="M269.611,374.405a3.35,3.35,0,0,1-2.48,3.149,10.537,10.537,0,0,1-2.954.317c-.658.021-1.318,0-1.978,0-1.221,0-2.441-.011-3.662.007-.291.005-.347-.093-.347-.355q.015-3.527,0-7.057c0-.22.035-.323.293-.317,2.355.05,4.713-.091,7.067.09a5.421,5.421,0,0,1,2.34.6A3.454,3.454,0,0,1,269.611,374.405Z" transform="translate(-238.617 -342.557)"/><path class="c" d="M25,0A25,25,0,1,0,50,25,25,25,0,0,0,25,0ZM37.4,31.543a8.918,8.918,0,0,1-3.346,7,9.986,9.986,0,0,1-4.772,1.883,24.7,24.7,0,0,1-4.023.28q-5.751-.008-11.5.005c-.335,0-.47-.046-.47-.435q.017-15.421.009-30.839c0-.048.007-.1.009-.145H26.982c.786.129,1.581.224,2.36.393a8.139,8.139,0,0,1,6.618,8.129,7.343,7.343,0,0,1-2.637,5.6c-.168.145-.345.286-.554.457a10.522,10.522,0,0,1,1.643,1.011A7.8,7.8,0,0,1,37.4,31.543Z"/></g></g></svg>