<svg xmlns="http://www.w3.org/2000/svg" xmlns:xlink="http://www.w3.org/1999/xlink" viewBox="0 0 688.91 688.91"><defs><style>.cls-1{fill:url(#linear-gradient);}.cls-2{fill:url(#linear-gradient-2);}.cls-3{fill:url(#linear-gradient-3);}</style><linearGradient id="linear-gradient" x1="345.85" y1="296.48" x2="323.39" y2="198.43" gradientUnits="userSpaceOnUse"><stop offset="0.06" stop-color="#1ab4cf"/><stop offset="0.66" stop-color="#525ca9"/><stop offset="1" stop-color="#6a58a5"/></linearGradient><linearGradient id="linear-gradient-2" x1="355.33" y1="485.73" x2="329.48" y2="372.88" xlink:href="#linear-gradient"/><linearGradient id="linear-gradient-3" x1="409.53" y1="628.51" x2="286.38" y2="90.95" xlink:href="#linear-gradient"/></defs><g id="Layer_2" data-name="Layer 2"><path class="cls-1" d="M258.19,296.23q.24-47.26,0-94.57c0-3.63.89-4.93,4.76-4.85,34.43.62,68.9-1.16,103.3,1.48a134.36,134.36,0,0,1,20.3,2.93c20.94,4.87,33.88,22.17,34.74,45.76,1.1,29.46-14.64,47.87-44,51.94-20.65,2.87-41.41,2.3-62.15,2.36-17.21,0-34.45-.13-51.68.09C259.38,301.44,258.19,300.33,258.19,296.23Z"/><path class="cls-2" d="M438.15,437.24c-2.1,24.89-14.84,41.81-39.08,49.61-15.18,4.9-30.92,4.5-46.55,5-10.36.33-20.76.07-31.16.07-19.24,0-38.46-.18-57.7.11-4.58.08-5.47-1.46-5.47-5.6q.24-55.57,0-111.19c0-3.46.55-5.09,4.62-5,37.1.79,74.26-1.44,111.35,1.41,12.78,1,25.54,2.93,36.87,9.47C432.66,393.67,440.13,413.44,438.15,437.24Z"/><path class="cls-3" d="M344.46,0C154.21,0,0,154.21,0,344.46S154.21,688.91,344.46,688.91,688.91,534.7,688.91,344.46,534.7,0,344.46,0ZM515.37,434.6c-1.25,38.77-15.47,71.8-46.1,96.42-19,15.3-42,22-65.75,25.94-18.33,3-36.87,3.88-55.43,3.86q-79.24-.11-158.48.07c-4.61,0-6.48-.64-6.48-6q.23-212.47.13-424.9c0-.66.09-1.32.13-2H371.76c10.83,1.78,21.78,3.08,32.51,5.42,55,12,92,57.3,91.18,112-.44,31-13.05,56.73-36.34,77.2-2.32,2-4.76,3.94-7.63,6.3,8,4.32,15.78,8.4,22.64,13.93C503.38,366.5,516.59,397.44,515.37,434.6Z"/></g></svg>