<svg xmlns="http://www.w3.org/2000/svg" width="20" height="25.68" viewBox="0 0 20 25.68"><defs><style>.a{fill:#757575;}.b{fill:#fefefe;}</style></defs><g transform="translate(-301 -499)"><g transform="translate(301 499)"><path class="a" d="M101.012,181.81a3.847,3.847,0,0,0,.406,1.771,27.764,27.764,0,0,0,2.531,4.373l.678,1c.194-.965.376-1.873.565-2.777a.213.213,0,0,0-.087-.221c-.159-.158-.316-.318-.476-.476-.091-.09-.129-.194-.039-.3a1.073,1.073,0,0,1,.891-.489,4.851,4.851,0,0,0,.672,0,1.08,1.08,0,0,1,.932.459.212.212,0,0,1-.008.32.5.5,0,0,1-.074.072.972.972,0,0,0-.388,1.229c.2.69.3,1.409.446,2.111.051.012.07-.017.089-.046a38.52,38.52,0,0,0,2.707-4.364,6.374,6.374,0,0,0,.827-2.317c.008-.1,0-.2,0-.333a5.43,5.43,0,0,1,1.7,1.488,5.735,5.735,0,0,1,1.16,3.619c-.009.932,0,1.864,0,2.795,0,.159.017.234.208.259a2.348,2.348,0,0,1,2.088,2.37q.025,2.161,0,4.322a2.372,2.372,0,0,1-2.463,2.409c-1.242.009-2.485,0-3.726,0H98.415a2.453,2.453,0,0,1-2.056-.94,2.329,2.329,0,0,1-.5-1.455c-.008-1.449-.017-2.9,0-4.348a2.341,2.341,0,0,1,2.078-2.351c.206-.029.22-.112.22-.278,0-1.113-.041-2.228.026-3.338A5.61,5.61,0,0,1,101.012,181.81Z" transform="translate(-95.849 -173.411)"/><path class="a" d="M183.749,57.156a6.061,6.061,0,0,1-3.277,5.164,3.685,3.685,0,0,1-4.148-.462,6.178,6.178,0,0,1-2.49-4.868,4.951,4.951,0,0,1,9.634-1.646A5.665,5.665,0,0,1,183.749,57.156Z" transform="translate(-168.785 -52.004)"/><path class="b" d="M131.605,335.14H139c.61,0,.824.213.824.82v3.957c0,.591-.221.816-.8.816H124.2c-.588,0-.81-.222-.811-.809V335.94c0-.578.221-.8.791-.8Z" transform="translate(-121.608 -316.819)"/><path class="b" d="M207.915,82.609a4.421,4.421,0,0,1-1.853,3.257,2.1,2.1,0,0,1-2.62,0,4.2,4.2,0,0,1-1.8-4.161,3.128,3.128,0,0,1,3.384-2.578A3.259,3.259,0,0,1,207.915,82.609Z" transform="translate(-194.747 -77.359)"/><path class="a" d="M274.312,350.772a1.787,1.787,0,0,1-1.831-1.7,2.128,2.128,0,0,1,.633-1.9,1.868,1.868,0,0,1,2.006-.329,1.681,1.681,0,0,1,1.094,1.45,2.127,2.127,0,0,1-.676,2.083A1.86,1.86,0,0,1,274.312,350.772Z" transform="translate(-261.037 -327.622)"/><path class="a" d="M226.53,349.755c0-.56,0-1.121,0-1.682,0-.2.065-.3.284-.3.63.009,1.259.012,1.888,0,.28-.006.278.158.273.352s.038.395-.267.388c-.371-.011-.742,0-1.112-.005-.122,0-.157.032-.162.158-.028.668-.032.668.639.668.2,0,.4,0,.6,0a.2.2,0,0,1,.225.219c.012.5,0,.522-.458.511-.284-.007-.569,0-.853,0-.113,0-.16.034-.144.146v.026c.013.248-.1.567.043.723s.457.035.7.041c.215.006.431,0,.647,0,.162,0,.24.071.237.233v.259c.005.159-.065.241-.229.24h-2.071c-.21,0-.231-.133-.23-.294C226.531,350.876,226.53,350.316,226.53,349.755Z" transform="translate(-218.074 -328.639)"/><path class="a" d="M171.839,346.84a4.055,4.055,0,0,1,.74.088c.166.044.23.137.182.3-.026.091-.052.182-.077.273-.051.194-.194.164-.332.129a1.737,1.737,0,0,0-.817-.016,1.19,1.19,0,0,0-.912,1.341,1.2,1.2,0,0,0,1.464,1.2c.051-.005.1-.016.153-.025.366-.065.575.166.489.532a.155.155,0,0,1-.113.126,2.385,2.385,0,0,1-2.565-.647,2.137,2.137,0,0,1-.174-2.139,1.888,1.888,0,0,1,1.677-1.149C171.656,346.85,171.763,346.846,171.839,346.84Z" transform="translate(-164.895 -327.762)"/><path class="b" d="M286.983,358.9a1.516,1.516,0,0,1,.223-.756.825.825,0,0,1,1.434-.012,1.752,1.752,0,0,1,0,1.846.831.831,0,0,1-1.436,0A1.818,1.818,0,0,1,286.983,358.9Z" transform="translate(-274.615 -337.942)"/></g></g></svg>