<svg xmlns="http://www.w3.org/2000/svg" width="86.012" height="62.358" viewBox="0 0 86.012 62.358"><defs><style>.a{fill:#081351;}</style></defs><g transform="translate(0 0.04)"><g transform="translate(0 -0.04)"><path class="a" d="M699.782,261.281a7.853,7.853,0,0,1-1.668-5.542c.107-4.579.107-9.161.142-13.757,0-.705.125-1.535-.572-1.965-2.859-1.767-3.641-4.729-4.192-7.661a42.787,42.787,0,0,1-.181-13.895,2.739,2.739,0,0,1,1.87-2.382,24.727,24.727,0,0,1,8.22-1.311c1.139-.03,1,.572.86,1.38-.43,2.829-.744,5.675-1.165,8.5-.314,2.119,1.47,3.125,2.334,4.617.2.34.559.116.7-.112,1.006-1.642,2.738-2.9,2.184-5.3s-.641-4.824-1.109-7.205c-.309-1.578.168-1.935,1.694-1.917,6.879.073,13.757,0,20.635.039,2.3,0,3.65,1.247,3.7,3.267a3.337,3.337,0,0,1-3.637,3.59c-3.723.047-7.45.069-11.178,0-1.522-.034-2.184.31-2.511,2a135.79,135.79,0,0,0-2.717,33.064,5.177,5.177,0,0,1-1.8,4.583h-4.725a1.616,1.616,0,0,0-2.15,0Z" transform="translate(-661.951 -198.927)"/><path class="a" d="M621,277.734c1.806-1.582,3.968-.7,5.967-.8.89-.043.7.929.709,1.526.03,2.15,0,4.26,0,6.879,1.423-1.5,2.661-2.579,3.916.073l.327-.576c0-2.1.06-4.2-.022-6.3-.052-1.29.365-1.694,1.72-1.72,4.944-.043,4.944-.1,4.944,4.854v9.673c0,2.687-.378,3.052-3.13,3.065-3.727,0-7.45-.026-11.178,0a5.709,5.709,0,0,1-3.254-.77Z" transform="translate(-621 -234.297)"/><path class="a" d="M15.332,30.954a15.025,15.025,0,0,1-8.675-2.706,15.6,15.6,0,0,1-5.8-17.867A15.042,15.042,0,0,1,6.523,2.827,15.968,15.968,0,0,1,15.712,0c.262,0,.528.006.791.018a14.4,14.4,0,0,1,4.762,1.05,15.264,15.264,0,0,1,4.141,2.514,15.785,15.785,0,0,1,5.139,8.343,1.739,1.739,0,0,1,.04.243l0,.008c.031.268.063.522.39.665l-.03,5.593a31.742,31.742,0,0,1-2.2,4.918,14.281,14.281,0,0,1-3.5,4.131,16,16,0,0,1-4.733,2.6A15.844,15.844,0,0,1,15.332,30.954Zm.108-28.427a12.932,12.932,0,0,0,0,25.864h.056A12.931,12.931,0,0,0,20.435,3.534,12.856,12.856,0,0,0,15.439,2.528Z" transform="translate(55.034 28.012)"/><path class="a" d="M714.257,177.977c.107.477.5.378.834.43a6.41,6.41,0,0,1,5.589,6.913,6.53,6.53,0,1,1-7.923-6.9c.374-.095.894.133,1.049-.464Z" transform="translate(-670.407 -177.96)"/><path class="a" d="M720,321.715c.718-.86,1.432-1.664,2.149,0Z" transform="translate(-677.44 -259.361)"/><path class="a" d="M654.936,239.943c0-2.029.069-4.063-.022-6.092-.064-1.406.537-1.96,1.862-1.943h2.36c1.72,0,2.438.86,2.429,2.536V247.1c0,1.677-.714,2.425-2.485,2.39-4.3-.086-8.6-.06-12.867,0-1.539,0-2.227-.589-2.214-2.15.03-4.359.056-8.723,0-13.082-.026-1.552.658-2.188,2.111-2.347,4.329-.477,4.432-.4,4.432,3.869v4.656C651.888,239.143,653.2,237.991,654.936,239.943Z" transform="translate(-634.112 -208.603)"/><path class="a" d="M673.426,285.292c2.24-1.72,2.24-1.72,4.3.146,0-2.472.03-4.729,0-6.986,0-1.036.215-1.561,1.414-1.573s1.582.46,1.561,1.638c-.06,3.293-.086,6.586,0,9.888.043,1.548-.185,2.519-2.055,2.236-.559-.086-1.4-.245-1.384.8,0,.963.761.86,1.4.89h.645c.757-.026,1.436-.026,1.384,1.079-.043.894-.559,1.066-1.29,1.066-3.508,0-7.016,0-10.52-.034-1.358,0-2.051-.744-2.038-2.184.034-4.437,0-8.878,0-13.327,0-1.427.654-1.995,2.111-2.042,4.458-.133,4.458-.181,4.458,4.256Z" transform="translate(-647.133 -234.336)"/><path class="a" d="M673.471,195.641c1.565-1.535,2.812-1.389,4.3.748,0-2.743.073-4.858,0-6.964-.116-2.661,1.844-1.492,3.009-1.668,1.72-.262,1.083.937.993,1.78a9.818,9.818,0,0,0,2.39,7.145c-1.075.748-2.274.688-3.362.972-2.855.744-4.781,2.339-4.944,5.417-.095,1.819-.971,2.291-2.579,2.184-1.427-.095-2.863-.03-4.3-.056s-2.072-.671-2.059-2.15q.056-6.556,0-13.112c0-1.672.774-2.223,2.377-2.253,4.217-.077,4.217-.125,4.217,4.118Q673.471,193.733,673.471,195.641Z" transform="translate(-647.179 -183.484)"/><path class="a" d="M647.641,308.769c.688.357,2.386-.735,2.339.959-.039,1.419-1.6.585-2.468.787a5.327,5.327,0,0,1-1.062,0c-.705,0-1.29-.112-1.29-1.01s.718-.7,1.242-.739C646.764,308.743,647.12,308.769,647.641,308.769Z" transform="translate(-634.774 -252.52)"/><path class="a" d="M670.5,265.792a2.746,2.746,0,0,1-.636.039c-.679-.112-1.771.43-1.776-.86s1.075-.8,1.767-.86a13.585,13.585,0,0,1,1.72,0c.61,0,1.38-.163,1.367.86,0,.929-.7.92-1.358.9C671.211,265.826,670.854,265.8,670.5,265.792Z" transform="translate(-647.846 -227.048)"/><path class="a" d="M776.081,261.031a10.46,10.46,0,0,1-1.518.6c-.752.146-1.642,1.5-2.21.258-.5-1.1-1.393-2.622.825-3.465,2-.757,3.822-1.879,6.118-1.6.916.112,1.186.331,1.178,1.26-.047,5.443-.09,10.885,0,16.336.034,1.853-1.118,1.479-2.1,1.427s-2.382.636-2.334-1.427C776.154,270.059,776.081,265.7,776.081,261.031Z" transform="translate(-706.94 -222.894)"/></g></g></svg>