<svg xmlns="http://www.w3.org/2000/svg" width="30" height="30" viewBox="0 0 30 30"><defs><style>.a{fill:#081351;}.b{fill:#fff;}</style></defs><g transform="translate(-185 -1956)"><circle class="a" cx="15" cy="15" r="15" transform="translate(185 1956)"/><g transform="translate(192 1964)"><g transform="translate(0 0)"><path class="b" d="M.981,37.7a1.167,1.167,0,0,1,.2-.015H12.7l-.251-.117a2.336,2.336,0,0,1-.66-.467l-3.23-3.23A1.209,1.209,0,0,1,8.39,32.32a1.168,1.168,0,0,1,1.752-.152l5.84,5.84a1.168,1.168,0,0,1,0,1.652h0l-5.84,5.84a1.168,1.168,0,0,1-1.752-.117,1.209,1.209,0,0,1,.169-1.548L11.783,40.6a2.336,2.336,0,0,1,.584-.426l.35-.158H1.247a1.209,1.209,0,0,1-1.232-.981A1.168,1.168,0,0,1,.981,37.7Z" transform="translate(0 -31.842)"/></g></g></g></svg>