<svg xmlns="http://www.w3.org/2000/svg" width="20" height="20.013" viewBox="0 0 20 20.013"><defs><style>.a{fill:#757575;}.b{fill:#fefefe;}.c{fill:#f6f6f6;}</style></defs><g transform="translate(-260 -677)"><g transform="translate(260 677)"><path class="a" d="M163.959,78.633h-1.6a.293.293,0,0,1-.062-.2V59.476a1.2,1.2,0,0,1,.046-.443.547.547,0,0,1,.545-.393h7.877c.485,0,.7.212.706.7,0,1.034,0,2.067,0,3.1v15.8a.575.575,0,0,1-.062.395h-1.6a.445.445,0,0,1-.061-.317v-3.39a.549.549,0,0,0-.592-.6H164.6a.543.543,0,0,0-.572.579c-.009.558,0,1.117,0,1.675v1.753A.432.432,0,0,1,163.959,78.633Z" transform="translate(-156.877 -58.64)"/><path class="a" d="M359.915,221.077q0-5.982,0-11.969c0-.175.046-.208.212-.208,1.137.008,2.274,0,3.411,0a.6.6,0,0,1,.673.67q0,5.361.006,10.721a.75.75,0,0,1-.434.78Z" transform="translate(-344.211 -201.084)"/><path class="a" d="M58.5,209.322a.744.744,0,0,1,.78-.435c1.1.016,2.21.01,3.315,0,.164,0,.2.041.2.2q-.006,5.989,0,11.977H58.929a.506.506,0,0,1-.429-.429Z" transform="translate(-58.479 -201.071)"/><path class="b" d="M194.25,363.369v-3.683a.6.6,0,0,1,.694-.687h4.462a.6.6,0,0,1,.695.687v3.683h-1.17a.444.444,0,0,1-.061-.317v-2.471c0-.348,0-.348-.357-.348h-.331c-.357,0-.357,0-.357.348v2.471a.447.447,0,0,1-.061.317h-1.17a.444.444,0,0,1-.061-.317v-2.471c0-.348,0-.348-.357-.348h-.331c-.357,0-.357,0-.357.348v2.471a.447.447,0,0,1-.061.317Z" transform="translate(-187.168 -343.377)"/><path class="a" d="M216.684,384.61c0-1.008,0-2.016,0-3.023,0-.146.033-.187.179-.18.279.013.559.011.839,0,.128,0,.16.033.159.16-.005,1.014,0,2.029,0,3.042Z" transform="translate(-208.431 -364.618)"/><path class="a" d="M261.684,384.61c0-1.008,0-2.016,0-3.023,0-.146.033-.187.179-.18.279.013.559.011.839,0,.128,0,.16.033.159.16-.005,1.014,0,2.029,0,3.042Z" transform="translate(-251.091 -364.618)"/><path class="c" d="M58.119,434.75a.912.912,0,0,0,.429.429c-.143,0-.342.056-.414-.016S58.119,434.893,58.119,434.75Z" transform="translate(-58.098 -415.186)"/><path class="b" d="M195.382,89.968c0,.195,0,.39,0,.584a.584.584,0,0,1-1.167.007q-.01-.594,0-1.188a.583.583,0,0,1,1.166-.007C195.388,89.565,195.382,89.767,195.382,89.968Z" transform="translate(-187.13 -87.217)"/><path class="b" d="M240.4,90.178c0,.195,0,.39,0,.584a.584.584,0,1,1-1.168-.006q-.008-.572,0-1.148a.584.584,0,1,1,1.168.006C240.4,89.8,240.4,89.989,240.4,90.178Z" transform="translate(-229.804 -87.43)"/><path class="b" d="M285.382,90.177c0,.195.005.39,0,.584a.584.584,0,0,1-1.167-.006q-.009-.584,0-1.168a.583.583,0,1,1,1.167.006C285.386,89.788,285.382,89.983,285.382,90.177Z" transform="translate(-272.449 -87.42)"/><path class="b" d="M194.226,157.932c0-.195,0-.39,0-.584a.584.584,0,0,1,1.167-.01q.011.594,0,1.188a.584.584,0,0,1-1.167-.009C194.222,158.322,194.226,158.127,194.226,157.932Z" transform="translate(-187.144 -151.671)"/><path class="b" d="M239.226,157.932c0-.195,0-.39,0-.584a.584.584,0,0,1,1.167-.01q.011.594,0,1.188a.584.584,0,0,1-1.167-.009C239.222,158.322,239.226,158.127,239.226,157.932Z" transform="translate(-229.803 -151.671)"/><path class="b" d="M285.4,157.676c0,.195,0,.39,0,.584a.584.584,0,1,1-1.168,0q-.008-.572,0-1.148a.585.585,0,1,1,1.169,0C285.4,157.3,285.4,157.488,285.4,157.676Z" transform="translate(-272.463 -151.419)"/><path class="b" d="M195.382,224.964c0,.195,0,.39,0,.584a.584.584,0,0,1-1.167.005q-.01-.594,0-1.188a.583.583,0,0,1,1.166-.005C195.388,224.561,195.382,224.762,195.382,224.964Z" transform="translate(-187.13 -215.19)"/><path class="b" d="M239.226,225.438c0-.195,0-.39,0-.584a.584.584,0,0,1,1.167-.007q.011.593,0,1.188a.584.584,0,0,1-1.167-.013C239.222,225.829,239.226,225.632,239.226,225.438Z" transform="translate(-229.803 -215.667)"/><path class="b" d="M285.385,224.988c0,.195,0,.39,0,.584a.584.584,0,0,1-1.167,0c-.006-.389-.006-.78,0-1.168a.584.584,0,1,1,1.168,0C285.39,224.6,285.385,224.793,285.385,224.988Z" transform="translate(-272.452 -215.21)"/><path class="b" d="M194.226,292.967c0-.195,0-.39,0-.584a.584.584,0,0,1,1.167-.007q.011.593,0,1.188a.584.584,0,0,1-1.167-.013C194.222,293.355,194.226,293.16,194.226,292.967Z" transform="translate(-187.144 -279.685)"/><path class="b" d="M240.382,292.428c0,.195,0,.39,0,.584a.584.584,0,0,1-1.167.006q-.01-.593,0-1.187a.583.583,0,0,1,1.166-.006C240.388,292.028,240.382,292.229,240.382,292.428Z" transform="translate(-229.789 -279.146)"/><path class="b" d="M285.382,292.625c0,.188,0,.377,0,.564a.584.584,0,1,1-1.168,0q-.008-.584,0-1.168a.584.584,0,1,1,1.167-.005C285.387,292.223,285.382,292.424,285.382,292.625Z" transform="translate(-272.449 -279.331)"/><path class="b" d="M389.966,255.423c0-.188,0-.377,0-.564a.584.584,0,0,1,1.167-.01q.011.593,0,1.187a.584.584,0,0,1-1.167-.009C389.963,255.825,389.966,255.624,389.966,255.423Z" transform="translate(-372.702 -244.11)"/><path class="b" d="M389.962,322.618c0-.195,0-.39,0-.584a.584.584,0,0,1,1.167,0c.007.389.006.78,0,1.168a.584.584,0,1,1-1.168,0C389.958,323.007,389.962,322.812,389.962,322.618Z" transform="translate(-372.698 -307.78)"/><path class="b" d="M89.642,254.969c0,.195,0,.39,0,.584a.584.584,0,0,1-1.167.006q-.01-.594,0-1.188a.583.583,0,1,1,1.166-.006C89.647,254.566,89.642,254.767,89.642,254.969Z" transform="translate(-86.89 -243.634)"/><path class="b" d="M88.471,322.458c0-.195,0-.39,0-.584a.584.584,0,1,1,1.168.007q.008.572,0,1.148a.584.584,0,1,1-1.168-.007C88.468,322.836,88.471,322.648,88.471,322.458Z" transform="translate(-86.889 -307.615)"/></g></g></svg>