<svg id="Bold" xmlns="http://www.w3.org/2000/svg" viewBox="0 0 512 512"><defs><style>.cls-1{fill:#fff;}</style></defs><title>dashboard-interface (white)</title><path class="cls-1" d="M474.67,0H37.33A37.37,37.37,0,0,0,0,37.33V90.67A37.37,37.37,0,0,0,37.33,128H474.67A37.37,37.37,0,0,0,512,90.67V37.33A37.37,37.37,0,0,0,474.67,0Z"/><path class="cls-1" d="M37.33,512h160a37.37,37.37,0,0,0,37.33-37.33V208a37.37,37.37,0,0,0-37.33-37.33h-160A37.37,37.37,0,0,0,0,208V474.67A37.37,37.37,0,0,0,37.33,512Z"/><path class="cls-1" d="M474.67,170.67h-160A37.37,37.37,0,0,0,277.33,208v74.67A37.37,37.37,0,0,0,314.67,320h160A37.37,37.37,0,0,0,512,282.67V208A37.37,37.37,0,0,0,474.67,170.67Z"/><path class="cls-1" d="M474.67,362.67h-160A37.37,37.37,0,0,0,277.33,400v74.67A37.37,37.37,0,0,0,314.67,512h160A37.37,37.37,0,0,0,512,474.67V400A37.37,37.37,0,0,0,474.67,362.67Z"/></svg>