<svg id="Capa_1" data-name="Capa 1" xmlns="http://www.w3.org/2000/svg" viewBox="0 0 512 288"><title>details</title><path d="M496,202.67H357.33a16,16,0,1,0,0,32H496a16,16,0,0,0,0-32Z" transform="translate(0 -202.67)"/><path d="M496,266.67H357.33a16,16,0,1,0,0,32H496a16,16,0,0,0,0-32Z" transform="translate(0 -202.67)"/><path d="M496,330.67H357.33a16,16,0,1,0,0,32H496a16,16,0,1,0,0-32Z" transform="translate(0 -202.67)"/><path d="M496,394.67H357.33a16,16,0,1,0,0,32H496a16,16,0,0,0,0-32Z" transform="translate(0 -202.67)"/><path d="M496,458.67H357.33a16,16,0,1,0,0,32H496a16,16,0,0,0,0-32Z" transform="translate(0 -202.67)"/><path d="M261.33,202.67h-224A37.51,37.51,0,0,0,0,240V453.33a37.51,37.51,0,0,0,37.33,37.33h224a37.51,37.51,0,0,0,37.33-37.33V240a37.51,37.51,0,0,0-37.33-37.33Zm-112,74.67a32,32,0,1,1-32,32A32,32,0,0,1,149.33,277.33Zm64,133.33a16.12,16.12,0,0,1-16,16h-96a16.12,16.12,0,0,1-16-16v-7.89c0-22.19,20.05-40.11,44.8-40.11h38.4c24.75,0,44.8,17.92,44.8,40.11Z" transform="translate(0 -202.67)"/></svg>