<svg xmlns="http://www.w3.org/2000/svg" width="20" height="20" viewBox="0 0 20 20"><defs><style>.a{fill:#fff;}.b{fill:#081351;}</style></defs><g transform="translate(-444 -645)"><g transform="translate(444 645)"><path class="a" d="M17.5,0H2.5A2.5,2.5,0,0,0,0,2.5v15A2.5,2.5,0,0,0,2.5,20h15A2.5,2.5,0,0,0,20,17.5V2.5A2.5,2.5,0,0,0,17.5,0Z"/><path class="b" d="M202.625,103.083h-3.542V100.25c0-.782.635-.708,1.417-.708h1.417V96h-2.833a4.25,4.25,0,0,0-4.25,4.25v2.833H192v3.542h2.833v7.792h4.25v-7.792h2.125Z" transform="translate(-185.382 -94.417)"/></g></g></svg>