<svg xmlns="http://www.w3.org/2000/svg" width="26" height="26" viewBox="0 0 26 26"><defs><style>.a{fill:#fff;}.b{fill:#1976d2;}.c{fill:#fafafa;}</style></defs><g transform="translate(-1266 -311)"><circle class="a" cx="13" cy="13" r="13" transform="translate(1266 311)"/><g transform="translate(1272 317)"><path class="b" d="M12.25,0H1.75A1.752,1.752,0,0,0,0,1.75v10.5A1.752,1.752,0,0,0,1.75,14h10.5A1.752,1.752,0,0,0,14,12.25V1.75A1.752,1.752,0,0,0,12.25,0Z"/><path class="c" d="M199.5,100.615H197V98.769c0-.51.448-.462,1-.462h1V96h-2a2.891,2.891,0,0,0-3,2.769v1.846h-2v2.308h2V108h3v-5.077h1.5Z" transform="translate(-187.706 -94)"/></g></g></svg>