<svg xmlns="http://www.w3.org/2000/svg" width="26" height="26" viewBox="0 0 26 26"><defs><style>.a{fill:#fff;}.b{fill:#f44336;}</style></defs><g transform="translate(-1266 -391)"><circle class="a" cx="13" cy="13" r="13" transform="translate(1266 391)"/><g transform="translate(1271.203 341.168)"><g transform="translate(0 60.328)"><g transform="translate(0 0)"><path class="b" d="M8.248,151.674a.886.886,0,0,1-.921,0L0,147.2v5.947a2.3,2.3,0,0,0,2.3,2.3H13.292a2.3,2.3,0,0,0,2.3-2.3V147.2Z" transform="translate(0 -147.2)"/></g></g><g transform="translate(0.074 57.088)"><g transform="translate(0 0)"><path class="b" d="M15.267,57.088H4.276a2.288,2.288,0,0,0-2.228,1.8L9.78,63.605l7.714-4.713A2.288,2.288,0,0,0,15.267,57.088Z" transform="translate(-2.048 -57.088)"/></g></g></g></g></svg>