<svg xmlns="http://www.w3.org/2000/svg" xmlns:xlink="http://www.w3.org/1999/xlink" width="1070" height="805" viewBox="0 0 1070 805"><defs><style>.a,.h{fill:none;}.a{stroke:#081351;}.b,.d,.e{fill:#081351;}.c,.f{fill:#fff;}.c{font-size:14px;}.c,.e{font-family:RedHatDisplay-Regular, Red Hat Display;}.d,.e{font-size:16px;}.d{font-family:RedHatDisplay-Medium, Red Hat Display;font-weight:500;}.f{stroke:#eee;stroke-width:3px;}.g{stroke:none;}.i{filter:url(#s);}.j{filter:url(#q);}.k{filter:url(#o);}.l{filter:url(#m);}.m{filter:url(#k);}.n{filter:url(#i);}.o{filter:url(#g);}.p{filter:url(#e);}.q{filter:url(#c);}.r{filter:url(#a);}</style><filter id="a" x="0" y="0" width="168" height="168" filterUnits="userSpaceOnUse"><feOffset dx="5" dy="5" input="SourceAlpha"/><feGaussianBlur stdDeviation="3" result="b"/><feFlood flood-opacity="0.161"/><feComposite operator="in" in2="b"/><feComposite in="SourceGraphic"/></filter><filter id="c" x="167" y="226" width="168" height="168" filterUnits="userSpaceOnUse"><feOffset dx="5" dy="5" input="SourceAlpha"/><feGaussianBlur stdDeviation="3" result="d"/><feFlood flood-opacity="0.161"/><feComposite operator="in" in2="d"/><feComposite in="SourceGraphic"/></filter><filter id="e" x="340" y="0" width="168" height="168" filterUnits="userSpaceOnUse"><feOffset dx="5" dy="5" input="SourceAlpha"/><feGaussianBlur stdDeviation="3" result="f"/><feFlood flood-opacity="0.161"/><feComposite operator="in" in2="f"/><feComposite in="SourceGraphic"/></filter><filter id="g" x="513" y="226" width="168" height="168" filterUnits="userSpaceOnUse"><feOffset dx="5" dy="5" input="SourceAlpha"/><feGaussianBlur stdDeviation="3" result="h"/><feFlood flood-opacity="0.161"/><feComposite operator="in" in2="h"/><feComposite in="SourceGraphic"/></filter><filter id="i" x="685" y="0" width="168" height="168" filterUnits="userSpaceOnUse"><feOffset dx="5" dy="5" input="SourceAlpha"/><feGaussianBlur stdDeviation="3" result="j"/><feFlood flood-opacity="0.161"/><feComposite operator="in" in2="j"/><feComposite in="SourceGraphic"/></filter><filter id="k" x="859" y="226" width="168" height="168" filterUnits="userSpaceOnUse"><feOffset dx="5" dy="5" input="SourceAlpha"/><feGaussianBlur stdDeviation="3" result="l"/><feFlood flood-opacity="0.161"/><feComposite operator="in" in2="l"/><feComposite in="SourceGraphic"/></filter><filter id="m" x="685" y="637" width="168" height="168" filterUnits="userSpaceOnUse"><feOffset dx="5" dy="5" input="SourceAlpha"/><feGaussianBlur stdDeviation="3" result="n"/><feFlood flood-opacity="0.161"/><feComposite operator="in" in2="n"/><feComposite in="SourceGraphic"/></filter><filter id="o" x="513" y="434" width="168" height="168" filterUnits="userSpaceOnUse"><feOffset dx="5" dy="5" input="SourceAlpha"/><feGaussianBlur stdDeviation="3" result="p"/><feFlood flood-opacity="0.161"/><feComposite operator="in" in2="p"/><feComposite in="SourceGraphic"/></filter><filter id="q" x="343" y="637" width="168" height="168" filterUnits="userSpaceOnUse"><feOffset dx="5" dy="5" input="SourceAlpha"/><feGaussianBlur stdDeviation="3" result="r"/><feFlood flood-opacity="0.161"/><feComposite operator="in" in2="r"/><feComposite in="SourceGraphic"/></filter><filter id="s" x="167" y="434" width="168" height="168" filterUnits="userSpaceOnUse"><feOffset dx="5" dy="5" input="SourceAlpha"/><feGaussianBlur stdDeviation="3" result="t"/><feFlood flood-opacity="0.161"/><feComposite operator="in" in2="t"/><feComposite in="SourceGraphic"/></filter></defs><g transform="translate(-181 -4090)"><g transform="translate(0 55)"><g class="r" transform="matrix(1, 0, 0, 1, 181, 4035)"><g class="a" transform="translate(4 4)"><circle class="g" cx="75" cy="75" r="75"/><circle class="h" cx="75" cy="75" r="74.5"/></g></g><g transform="translate(219.461 4073)"><g transform="translate(0.539 0)"><path class="b" d="M79.308,59.49,68,48.178c-4.04-4.04-10.908-2.424-12.524,2.828a7.7,7.7,0,0,1-8.888,4.848C38.5,53.834,27.595,43.33,25.575,34.845c-1.212-3.636,1.212-7.676,4.848-8.888,5.252-1.616,6.868-8.484,2.828-12.524L21.939,2.121a8.069,8.069,0,0,0-10.908,0L3.355,9.8c-7.676,8.08.808,29.492,19.8,48.481s40.4,27.876,48.481,19.8L79.308,70.4A8.069,8.069,0,0,0,79.308,59.49Z" transform="translate(-0.539 0)"/></g></g></g><line class="a" x2="86" y2="100" transform="translate(302.5 4230.5)"/><line class="a" x2="89" y2="104" transform="translate(646.5 4226.5)"/><line class="a" x2="78" y2="90.5" transform="translate(828.5 4652.5)"/><line class="a" x2="89" y2="104" transform="translate(992.5 4226.5)"/><line class="a" x1="89" y2="104" transform="translate(463.5 4226.5)"/><line class="a" x1="75.5" y2="90" transform="translate(641.5 4652.5)"/><line class="a" x1="89" y2="104" transform="translate(809.5 4226.5)"/><line class="a" x1="143" y2="265" transform="translate(960 4468)"/><g transform="translate(-122 45)"><g class="q" transform="matrix(1, 0, 0, 1, 303, 4045)"><g class="a" transform="translate(171 230)"><circle class="g" cx="75" cy="75" r="75"/><circle class="h" cx="75" cy="75" r="74.5"/></g></g><path class="b" d="M16.285,8.811v54.7a2.385,2.385,0,0,1-2.378,2.378h0a2.385,2.385,0,0,1-2.378-2.378V14.246H8.811a5.43,5.43,0,0,0-5.436,5.436V68.6a5.43,5.43,0,0,0,5.436,5.436H68.79a5.252,5.252,0,0,0,5.249-5.249V8.811A5.43,5.43,0,0,0,68.6,3.375l-47.222.34A4.869,4.869,0,0,0,16.285,8.811ZM27.5,14.246H41.764a2.385,2.385,0,0,1,2.378,2.378h0A2.385,2.385,0,0,1,41.764,19H27.5a2.385,2.385,0,0,1-2.378-2.378h0A2.385,2.385,0,0,1,27.5,14.246Zm0,27.178h25.14A2.385,2.385,0,0,1,55.014,43.8h0a2.385,2.385,0,0,1-2.378,2.378H27.5A2.385,2.385,0,0,1,25.118,43.8h0A2.385,2.385,0,0,1,27.5,41.425ZM60.789,59.77H27.5a2.385,2.385,0,0,1-2.378-2.378h0A2.385,2.385,0,0,1,27.5,55.014H60.789a2.385,2.385,0,0,1,2.378,2.378h0A2.385,2.385,0,0,1,60.789,59.77Zm0-27.178H27.5a2.385,2.385,0,0,1-2.378-2.378h0A2.385,2.385,0,0,1,27.5,27.835H60.789a2.385,2.385,0,0,1,2.378,2.378h0A2.385,2.385,0,0,1,60.789,32.592Z" transform="translate(510.625 4311.625)"/></g><g transform="translate(-13 42)"><circle class="b" cx="9" cy="9" r="9" transform="translate(353 4053)"/><text class="c" transform="translate(362 4067)"><tspan x="-2.023" y="0">1</tspan></text></g><g transform="translate(327 42)"><circle class="b" cx="9" cy="9" r="9" transform="translate(353 4053)"/><text class="c" transform="translate(362 4067)"><tspan x="-4.074" y="0">3</tspan></text></g><g transform="translate(672 42)"><circle class="b" cx="9" cy="9" r="9" transform="translate(353 4053)"/><text class="c" transform="translate(362 4067)"><tspan x="-3.976" y="0">5</tspan></text></g><g transform="translate(713 502)"><circle class="b" cx="9" cy="9" r="9" transform="translate(353 4053)"/><text class="c" transform="translate(362 4067)"><tspan x="-4.284" y="0">6</tspan></text></g><g transform="translate(672 679)"><circle class="b" cx="9" cy="9" r="9" transform="translate(353 4053)"/><text class="c" transform="translate(362 4067)"><tspan x="-3.885" y="0">7</tspan></text></g><g transform="translate(500 476)"><circle class="b" cx="9" cy="9" r="9" transform="translate(353 4053)"/><text class="c" transform="translate(362 4067)"><tspan x="-4.305" y="0">8</tspan></text></g><g transform="translate(330 679)"><circle class="b" cx="9" cy="9" r="9" transform="translate(353 4053)"/><text class="c" transform="translate(362 4067)"><tspan x="-4.284" y="0">9</tspan></text></g><g transform="translate(154 476)"><circle class="b" cx="9" cy="9" r="9" transform="translate(353 4053)"/><text class="c" transform="translate(362 4067)"><tspan x="-6.65" y="0">10</tspan></text></g><g transform="translate(154 268)"><circle class="b" cx="9" cy="9" r="9" transform="translate(353 4053)"/><text class="c" transform="translate(362 4067)"><tspan x="-3.794" y="0">2</tspan></text></g><g transform="translate(500 268)"><circle class="b" cx="9" cy="9" r="9" transform="translate(353 4053)"/><text class="c" transform="translate(362 4067)"><tspan x="-4.333" y="0">4</tspan></text></g><text class="d" transform="translate(404 4110)"><tspan x="-40.64" y="0">Contact Us</tspan></text><text class="d" transform="translate(703 4110)"><tspan x="0" y="0">Schedule</tspan></text><text class="d" transform="translate(1048 4110)"><tspan x="0" y="0">Start using BizBlanca</tspan></text><text class="d" transform="translate(1089 4570)"><tspan x="0" y="0">Job Description</tspan></text><text class="d" transform="translate(1048 4747)"><tspan x="0" y="0">DB Search</tspan></text><text class="d" transform="translate(876 4544)"><tspan x="0" y="0">Scout</tspan></text><text class="d" transform="translate(706 4747)"><tspan x="0" y="0">Interview</tspan></text><text class="d" transform="translate(530 4544)"><tspan x="0" y="0">Offer Letter</tspan></text><text class="d" transform="translate(530 4336)"><tspan x="0" y="0">Service Agreement</tspan></text><text class="d" transform="translate(876 4336)"><tspan x="0" y="0">Meeting with BizBlanca</tspan></text><text class="e" transform="translate(363 4132)"><tspan x="0" y="0">This is an inquiry that</tspan><tspan x="0" y="21">will give you an idea of</tspan><tspan x="0" y="42">our service</tspan></text><text class="e" transform="translate(703 4132)"><tspan x="0" y="0">Adjust the date and</tspan><tspan x="0" y="21">time of meetings to</tspan><tspan x="0" y="42">find efficient human</tspan><tspan x="0" y="63">resources</tspan></text><text class="e" transform="translate(1048 4132)"><tspan x="0" y="0">The client company</tspan><tspan x="0" y="21">has started using our</tspan><tspan x="0" y="42">service</tspan></text><text class="e" transform="translate(1089 4592)"><tspan x="0" y="0">Important to prevent</tspan><tspan x="0" y="21">mismatches with talent</tspan><tspan x="0" y="42">in hiring</tspan></text><text class="e" transform="translate(1048 4769)"><tspan x="0" y="0">We will search</tspan><tspan x="0" y="21">according to the</tspan><tspan x="0" y="42">condition</tspan></text><text class="e" transform="translate(876 4566)"><tspan x="0" y="0">Let&apos;s set up an</tspan><tspan x="0" y="21">interview with your</tspan><tspan x="0" y="42">potential candidate</tspan><tspan x="0" y="63">by scouting</tspan></text><text class="e" transform="translate(706 4769)"><tspan x="0" y="0">You will have an</tspan><tspan x="0" y="21">interview with the job</tspan><tspan x="0" y="42">seeker along with the</tspan><tspan x="0" y="63">BizBlanca team</tspan></text><text class="e" transform="translate(530 4566)"><tspan x="0" y="0">When all the</tspan><tspan x="0" y="21">conditions after the</tspan><tspan x="0" y="42">interview are met, an</tspan><tspan x="0" y="63">offer letter will be</tspan><tspan x="0" y="84">issued</tspan></text><text class="e" transform="translate(530 4358)"><tspan x="0" y="0">Our potential clients</tspan><tspan x="0" y="21">need to agree to our</tspan><tspan x="0" y="42">service details</tspan></text><text class="e" transform="translate(876 4358)"><tspan x="0" y="0">We will introduce our</tspan><tspan x="0" y="21">service and have a</tspan><tspan x="0" y="42">meeting to create a</tspan><tspan x="0" y="63">job description</tspan></text><g transform="translate(0 49)"><g class="p" transform="matrix(1, 0, 0, 1, 181, 4041)"><g class="a" transform="translate(344 4)"><circle class="g" cx="75" cy="75" r="75"/><circle class="h" cx="75" cy="75" r="74.5"/></g></g><path class="b" d="M0,73.1a7.564,7.564,0,0,0,7.563,7.563H63.021A7.564,7.564,0,0,0,70.583,73.1V30.25H0Zm50.417-30.88a1.9,1.9,0,0,1,1.891-1.891h6.3A1.9,1.9,0,0,1,60.5,42.224v6.3a1.9,1.9,0,0,1-1.891,1.891h-6.3a1.9,1.9,0,0,1-1.891-1.891Zm0,20.167A1.9,1.9,0,0,1,52.307,60.5h6.3A1.9,1.9,0,0,1,60.5,62.391v6.3a1.9,1.9,0,0,1-1.891,1.891h-6.3a1.9,1.9,0,0,1-1.891-1.891ZM30.25,42.224a1.9,1.9,0,0,1,1.891-1.891h6.3a1.9,1.9,0,0,1,1.891,1.891v6.3a1.9,1.9,0,0,1-1.891,1.891h-6.3a1.9,1.9,0,0,1-1.891-1.891Zm0,20.167A1.9,1.9,0,0,1,32.141,60.5h6.3a1.9,1.9,0,0,1,1.891,1.891v6.3a1.9,1.9,0,0,1-1.891,1.891h-6.3a1.9,1.9,0,0,1-1.891-1.891ZM10.083,42.224a1.9,1.9,0,0,1,1.891-1.891h6.3a1.9,1.9,0,0,1,1.891,1.891v6.3a1.9,1.9,0,0,1-1.891,1.891h-6.3a1.9,1.9,0,0,1-1.891-1.891Zm0,20.167A1.9,1.9,0,0,1,11.974,60.5h6.3a1.9,1.9,0,0,1,1.891,1.891v6.3a1.9,1.9,0,0,1-1.891,1.891h-6.3a1.9,1.9,0,0,1-1.891-1.891ZM63.021,10.083H55.458V2.521A2.528,2.528,0,0,0,52.938,0H47.9a2.528,2.528,0,0,0-2.521,2.521v7.563H25.208V2.521A2.528,2.528,0,0,0,22.688,0H17.646a2.528,2.528,0,0,0-2.521,2.521v7.563H7.563A7.564,7.564,0,0,0,0,17.646v7.563H70.583V17.646A7.564,7.564,0,0,0,63.021,10.083Z" transform="translate(565 4080)"/></g><g transform="translate(0 55)"><g class="o" transform="matrix(1, 0, 0, 1, 181, 4035)"><g class="a" transform="translate(517 230)"><circle class="g" cx="75" cy="75" r="75"/><circle class="h" cx="75" cy="75" r="74.5"/></g></g><g transform="translate(738 4304.652)"><path class="b" d="M42.281,16.468a12.731,12.731,0,0,1,5.925,9.458,10.271,10.271,0,1,0-5.925-9.458ZM35.549,37.508A10.275,10.275,0,1,0,25.271,27.233,10.276,10.276,0,0,0,35.549,37.508Zm4.359.7H31.188A13.172,13.172,0,0,0,18.032,51.366V62.029l.027.167.734.23A59.889,59.889,0,0,0,36.682,65.31c9.67,0,15.275-2.757,15.62-2.933l.686-.347h.073V51.366A13.169,13.169,0,0,0,39.908,38.208Zm17-10.608H48.256a12.664,12.664,0,0,1-3.909,8.821A15.634,15.634,0,0,1,55.515,51.381v3.286c8.543-.313,13.466-2.734,13.79-2.9l.686-.348h.073V40.756A13.171,13.171,0,0,0,56.908,27.6Zm-39.39-.7a10.207,10.207,0,0,0,5.465-1.586,12.717,12.717,0,0,1,4.78-8.111c.01-.192.029-.383.029-.577A10.275,10.275,0,1,0,17.518,26.9Zm9.228,9.52a12.671,12.671,0,0,1-3.906-8.772c-.321-.024-.638-.049-.965-.049H13.157A13.172,13.172,0,0,0,0,40.756V51.421l.027.164.734.232A61.687,61.687,0,0,0,15.578,54.6v-3.22A15.637,15.637,0,0,1,26.747,36.421Z" transform="translate(0 0)"/></g></g><g transform="translate(0 55)"><g class="n" transform="matrix(1, 0, 0, 1, 181, 4035)"><g class="a" transform="translate(689 4)"><circle class="g" cx="75" cy="75" r="75"/><circle class="h" cx="75" cy="75" r="74.5"/></g></g><path class="b" d="M91.667,67V4.5H8.333V67H0v8.333H100V67ZM58.333,67H41.667V62.833H58.333Zm25-12.5H16.667V12.833H83.333Z" transform="translate(895 4074.5)"/></g><g transform="translate(0 55)"><g class="m" transform="matrix(1, 0, 0, 1, 181, 4035)"><g class="a" transform="translate(863 230)"><circle class="g" cx="75" cy="75" r="75"/><circle class="h" cx="75" cy="75" r="74.5"/></g></g><path class="b" d="M49.5,3H14.7a8.688,8.688,0,0,0-8.656,8.7L6,81.3A8.688,8.688,0,0,0,14.656,90H66.9a8.726,8.726,0,0,0,8.7-8.7V29.1Zm8.7,69.6H23.4V63.9H58.2Zm0-17.4H23.4V46.5H58.2ZM45.15,33.45V9.525L69.075,33.45Z" transform="translate(1078 4294)"/></g><line class="a" x2="78" y2="90.5" transform="translate(473.5 4661.5)"/><circle class="b" cx="5" cy="5" r="5" transform="translate(301 4229)"/><circle class="b" cx="5" cy="5" r="5" transform="translate(380 4322)"/><circle class="b" cx="5" cy="5" r="5" transform="translate(544 4225)"/><circle class="b" cx="5" cy="5" r="5" transform="translate(645 4225)"/><circle class="b" cx="5" cy="5" r="5" transform="translate(727 4322)"/><circle class="b" cx="5" cy="5" r="5" transform="translate(1073 4322)"/><circle class="b" cx="5" cy="5" r="5" transform="translate(1096 4467)"/><circle class="b" cx="5" cy="5" r="5" transform="translate(898 4734)"/><circle class="b" cx="5" cy="5" r="5" transform="translate(827 4651)"/><circle class="b" cx="5" cy="5" r="5" transform="translate(709 4651)"/><circle class="b" cx="5" cy="5" r="5" transform="translate(472 4660)"/><circle class="b" cx="5" cy="5" r="5" transform="translate(543 4743)"/><circle class="b" cx="5" cy="5" r="5" transform="translate(640 4733)"/><circle class="b" cx="5" cy="5" r="5" transform="translate(957 4724)"/><circle class="b" cx="5" cy="5" r="5" transform="translate(808 4322)"/><circle class="b" cx="5" cy="5" r="5" transform="translate(991 4225)"/><circle class="b" cx="5" cy="5" r="5" transform="translate(890 4225)"/><circle class="b" cx="5" cy="5" r="5" transform="translate(462 4322)"/><g transform="translate(0 55)"><g class="l" transform="matrix(1, 0, 0, 1, 181, 4035)"><g class="a" transform="translate(689 641)"><circle class="g" cx="75" cy="75" r="75"/><circle class="h" cx="75" cy="75" r="74.5"/></g></g><g transform="translate(904 4710.198)"><path class="b" d="M80.058,70.384,61.206,51.531a33.146,33.146,0,1,0-9.148,9.6L70.686,79.757a6.627,6.627,0,1,0,9.372-9.373ZM33.133,56.333a22.4,22.4,0,1,1,22.4-22.4A22.4,22.4,0,0,1,33.133,56.333Z"/></g></g><g transform="translate(0 55)"><g class="k" transform="matrix(1, 0, 0, 1, 181, 4035)"><g class="a" transform="translate(517 438)"><circle class="g" cx="75" cy="75" r="75"/><circle class="h" cx="75" cy="75" r="74.5"/></g></g><path class="b" d="M71.326,4.657,5.359,33.409a1.512,1.512,0,0,0,.054,2.749L23.257,46.24a2.877,2.877,0,0,0,3.288-.323L61.73,15.583c.234-.2.791-.575,1.006-.359.234.234-.126.773-.323,1.006L31.972,50.517a2.867,2.867,0,0,0-.288,3.432L43.347,72.656a1.518,1.518,0,0,0,2.731-.036L73.357,6.652A1.512,1.512,0,0,0,71.326,4.657Z" transform="translate(734.497 4509.497)"/></g><g transform="translate(0 55)"><g class="j" transform="matrix(1, 0, 0, 1, 181, 4035)"><g class="a" transform="translate(347 641)"><circle class="g" cx="75" cy="75" r="75"/><circle class="h" cx="75" cy="75" r="74.5"/></g></g><path class="b" d="M48.354,13.187A13.187,13.187,0,1,0,35.167,26.375,13.187,13.187,0,0,0,48.354,13.187ZM32.088,33.12c-8.15-4.989-21.351-6.36-27.995-6.738A3.8,3.8,0,0,0,0,30.1V60.709a3.778,3.778,0,0,0,3.639,3.716c6,.315,18.131,1.467,26.518,5.691a1.912,1.912,0,0,0,2.813-1.631V34.694a1.828,1.828,0,0,0-.882-1.574ZM66.24,26.382C59.6,26.758,46.4,28.131,38.246,33.12a1.862,1.862,0,0,0-.881,1.6V68.482a1.918,1.918,0,0,0,2.822,1.635C48.573,65.9,60.7,64.744,66.7,64.429a3.78,3.78,0,0,0,3.639-3.717V30.1A3.8,3.8,0,0,0,66.24,26.382Z" transform="translate(568 4716)"/></g><g transform="translate(0 55)"><g class="i" transform="matrix(1, 0, 0, 1, 181, 4035)"><g class="a" transform="translate(171 438)"><circle class="g" cx="75" cy="75" r="75"/><circle class="h" cx="75" cy="75" r="74.5"/></g></g><g transform="translate(394.688 4511.063)"><path class="b" d="M23.77,20.435H38.942a.826.826,0,0,0,.834-.834h0a4.935,4.935,0,0,0-1.784-3.818L25.27,5.178a5.355,5.355,0,0,0-3.435-1.234h0A1.231,1.231,0,0,0,20.6,5.178V17.267A3.167,3.167,0,0,0,23.77,20.435Z" transform="translate(18.224 0.01)"/><path class="b" d="M34.49,17.276V3.938H12.648A5.351,5.351,0,0,0,7.312,9.273V65.3a5.351,5.351,0,0,0,5.336,5.336H52.664A5.351,5.351,0,0,0,58,65.3V24.779H41.993A7.514,7.514,0,0,1,34.49,17.276Z" transform="translate(0 0)"/></g><path class="f" d="M0,0H35.334" transform="translate(409.677 4548.5)"/><path class="f" d="M0,0H35.334" transform="translate(409.677 4558.5)"/><path class="f" d="M0,0H35.334" transform="translate(409.677 4568.5)"/></g></g></svg>