<svg xmlns="http://www.w3.org/2000/svg" width="120" height="120" viewBox="0 0 120 120"><defs><style>.a{fill:#353535;}.b{fill:#fff;}</style></defs><g transform="translate(-1018 -2832)"><circle class="a" cx="60" cy="60" r="60" transform="translate(1018 2832)"/><path class="b" d="M0,44.406A4.6,4.6,0,0,0,4.594,49H38.281a4.6,4.6,0,0,0,4.594-4.594V18.375H0ZM30.625,25.648A1.152,1.152,0,0,1,31.773,24.5H35.6a1.152,1.152,0,0,1,1.148,1.148v3.828A1.152,1.152,0,0,1,35.6,30.625H31.773a1.152,1.152,0,0,1-1.148-1.148Zm0,12.25a1.152,1.152,0,0,1,1.148-1.148H35.6A1.152,1.152,0,0,1,36.75,37.9v3.828A1.152,1.152,0,0,1,35.6,42.875H31.773a1.152,1.152,0,0,1-1.148-1.148Zm-12.25-12.25A1.152,1.152,0,0,1,19.523,24.5h3.828A1.152,1.152,0,0,1,24.5,25.648v3.828a1.152,1.152,0,0,1-1.148,1.148H19.523a1.152,1.152,0,0,1-1.148-1.148Zm0,12.25a1.152,1.152,0,0,1,1.148-1.148h3.828A1.152,1.152,0,0,1,24.5,37.9v3.828a1.152,1.152,0,0,1-1.148,1.148H19.523a1.152,1.152,0,0,1-1.148-1.148ZM6.125,25.648A1.152,1.152,0,0,1,7.273,24.5H11.1a1.152,1.152,0,0,1,1.148,1.148v3.828A1.152,1.152,0,0,1,11.1,30.625H7.273a1.152,1.152,0,0,1-1.148-1.148Zm0,12.25A1.152,1.152,0,0,1,7.273,36.75H11.1A1.152,1.152,0,0,1,12.25,37.9v3.828A1.152,1.152,0,0,1,11.1,42.875H7.273a1.152,1.152,0,0,1-1.148-1.148ZM38.281,6.125H33.688V1.531A1.536,1.536,0,0,0,32.156,0H29.094a1.536,1.536,0,0,0-1.531,1.531V6.125H15.313V1.531A1.536,1.536,0,0,0,13.781,0H10.719A1.536,1.536,0,0,0,9.188,1.531V6.125H4.594A4.6,4.6,0,0,0,0,10.719v4.594H42.875V10.719A4.6,4.6,0,0,0,38.281,6.125Z" transform="translate(1056.563 2867.5)"/></g></svg>