<svg xmlns="http://www.w3.org/2000/svg" width="51.84" height="93.24" viewBox="0 0 51.84 93.24"><defs><style>.a{fill:#081351;}</style></defs><path class="a" d="M110.864,267.133c-3.538-8.39-6.658-16.972-11.25-25.1-5.224,7.033-8.756,14.872-13.14,22.515a3.653,3.653,0,0,1,.071-2.314,249.644,249.644,0,0,0,5.6-25.35,20.845,20.845,0,0,0-2.621-14.159,94.236,94.236,0,0,0-9.67-13.415,4.765,4.765,0,0,1-1.239-1.881,3.149,3.149,0,0,1,1.521.657c6.15,3.476,11.987,7.476,18.184,10.878a2.457,2.457,0,0,0,3.015-.18c5.267-3.64,10.159-7.78,15.206-11.708.524-.409,1.057-.809,1.623-1.239.353.868-.217,1.342-.586,1.859a108.953,108.953,0,0,0-6.931,11.343c-3.789,6.9-4.009,14.252-3.061,21.815,1.038,8.288,2.29,16.542,3.845,24.749a9.437,9.437,0,0,1,.043,1.549Z" transform="translate(-72.171 -173.914)"/><path class="a" d="M222.526,182.835c-2.274.443-4.511-.1-6.757-.276-1.156-.093-.957-1.035-.9-1.763s.369-1.239,1.32-.945a32.332,32.332,0,0,1,3.972,1.695,5.971,5.971,0,0,0,2.358.672Z" transform="translate(-170.686 -153.88)"/><path class="a" d="M72.974,137.7A19.651,19.651,0,0,1,74.2,126.8c3.175-8.018,10.493-12.765,17.279-11.268,7.63,1.682,13.249,8.805,14.27,18.137a10.485,10.485,0,0,1-.382,4.53c-2.723-13.288-8.856-20.734-19.675-18.246C78.439,121.617,74.437,128.449,72.974,137.7Z" transform="translate(-62.99 -104.171)"/><path class="a" d="M130.306,214.622a5.64,5.64,0,0,1-5.456-5.45,5.5,5.5,0,0,1,5.36-5.344,5.382,5.382,0,0,1,5.481,5.32A5.493,5.493,0,0,1,130.306,214.622Z" transform="translate(-103.899 -172.272)"/><path class="a" d="M139.132,79.48c-.493,2.894.589,5.307,1.2,7.817.143.582.48,1.391-.372,1.775a4.6,4.6,0,0,1-2.726,0c-.217-.043-.242-.291-.167-.511.8-2.389.248-4.92.781-7.337A2.082,2.082,0,0,1,139.132,79.48Z" transform="translate(-112.307 -79.48)"/><path class="a" d="M182.723,98.09c-1.292,2.169-1.6,4.62-2.355,6.934-.146.443-.344,1.087-1.029.929a2.857,2.857,0,0,1-1.909-1.215c-.362-.576.291-.79.511-1.14.706-1.137,1.441-2.256,2.187-3.365A4.824,4.824,0,0,1,182.723,98.09Z" transform="translate(-142.423 -92.324)"/><path class="a" d="M87.38,97.86a6.2,6.2,0,0,1,2.94,2.556,23.943,23.943,0,0,0,1.933,2.95c.843.948.4,1.422-.387,1.912s-1.472.793-1.958-.366a7.694,7.694,0,0,1-.62-2.045A14.765,14.765,0,0,0,87.38,97.86Z" transform="translate(-75.572 -92.165)"/><path class="a" d="M211.672,137.8a5.534,5.534,0,0,1-2.761,2.349c-.675.369-1.394.663-2.067,1.035a1.61,1.61,0,0,1-2.578-1.4c-.068-.728.49-.682.874-.787C207.279,138.413,209.5,138.413,211.672,137.8Z" transform="translate(-163.398 -122.76)"/><path class="a" d="M52.73,136.55a30.067,30.067,0,0,0,6.159,1.351c.542.1,1.366-.022,1.549.756a2.233,2.233,0,0,1-.9,2.039c-.545.533-1.016-.174-1.456-.4-1.729-.889-3.628-1.515-4.926-3.1A7.707,7.707,0,0,1,52.73,136.55Z" transform="translate(-49.223 -121.853)"/><path class="a" d="M41.41,182.279c2.144-.189,3.851-1.416,5.763-2.1.57-.2,1.239-.812,1.825-.2.486.511.31,1.267.22,1.924-.146.957-.945.561-1.484.651a18.762,18.762,0,0,1-4.279.406A2.681,2.681,0,0,1,41.41,182.279Z" transform="translate(-41.41 -153.841)"/><path class="a" d="M198.7,121.38c-.7,2.076-2.268,3.008-3.622,4.08-.449.356-.945-.186-1.239-.62-.369-.567-.074-1.007.421-1.264C195.635,122.861,197.054,122.192,198.7,121.38Z" transform="translate(-154.523 -108.398)"/><path class="a" d="M51.49,159.62c1.6.48,2.987.1,4.372.124.465,0,.929-.046,1.118.564a1.391,1.391,0,0,1-.2,1.174c-.31.573-.8.31-1.239.17C54.185,161.2,52.605,161.172,51.49,159.62Z" transform="translate(-48.367 -138.891)"/><path class="a" d="M113.946,97.12c.951,1.379,1.716,2.519,2.516,3.631.424.589.378,1.05-.31,1.335-.527.22-1.193.424-1.422-.328C114.312,100.361,113.472,99.035,113.946,97.12Z" transform="translate(-95.053 -91.655)"/><path class="a" d="M73.51,122.24c1.577.74,2.813,1.323,4.056,1.9.57.263.784.641.4,1.205-.294.424-.744.985-1.208.62C75.561,125,74.117,124.226,73.51,122.24Z" transform="translate(-65.245 -108.992)"/><path class="a" d="M162.146,97.31c.415,1.859-.4,3.145-.682,4.527-.177.861-.84.62-1.335.508a.789.789,0,0,1-.53-1.3C160.355,99.86,161.182,98.72,162.146,97.31Z" transform="translate(-128.842 -91.786)"/><path class="a" d="M217.77,160.236c-1.122,1.2-2.646,1.314-4.028,1.75-.663.208-.929-.282-1.032-.818a.874.874,0,0,1,.675-1.149C214.87,159.6,216.286,160.378,217.77,160.236Z" transform="translate(-169.208 -139.09)"/></svg>