<svg xmlns="http://www.w3.org/2000/svg" width="85.478" height="75.667" viewBox="0 0 85.478 75.667"><defs><style>.a{fill:#081351;}</style></defs><g transform="translate(-0.04)"><path class="a" d="M677.025,237.3c-3.954-1.206-5.844-4.155-4.895-7.652a6.186,6.186,0,0,1,7.46-4.378,4.438,4.438,0,0,1,2.834,1.778c1.035,1.68,1.877,1.052,2.963.1a35.979,35.979,0,0,0,12.752-28.45c-.09-16.895-10.8-30.087-27.266-33.879-13.522-3.112-28.608,3.813-35.845,16.612a35.684,35.684,0,0,0-2.526,31.028c.235.646.727,1.24.581,2-5.13,1.094-9.764-3.565-11.209-8.452-.291-.979-.073-2.108-.834-2.95v-1.71c.492-2.048.286-4.236,1.415-6.156a11.776,11.776,0,0,1,4.313-4.634,4.378,4.378,0,0,0,2.138-2.779,35.627,35.627,0,0,1,7.618-13.705c6.028-6.84,13.372-11.162,22.623-11.859a.615.615,0,0,0,.35-.214h8.977a32.486,32.486,0,0,1,17.715,6.951,37.585,37.585,0,0,1,13.3,18.81A3.934,3.934,0,0,0,701,190.232a10.554,10.554,0,0,1,5.519,8.524v6.412a11.5,11.5,0,0,1-7.665,9.6A3.42,3.42,0,0,0,697,216.689a35.4,35.4,0,0,1-10.354,12.795,5.455,5.455,0,0,0-2.082,3.074c-.855,3.228-2.458,4.536-5.6,4.882A5.436,5.436,0,0,1,677.025,237.3Z" transform="translate(-621 -162)"/><path class="a" d="M754.137,338.11a2.25,2.25,0,0,0,0,.38H752a3.328,3.328,0,0,0,0-.368Z" transform="translate(-695.975 -262.824)"/><path class="a" d="M702.517,282.28a15.878,15.878,0,0,1-13.252-5.622c-.564-.624-1.424-1.312-.427-2.137.855-.7,1.193.333,1.629.8a16.347,16.347,0,0,0,23.8.376q.3-.3.59-.616c.487-.534,1.013-1.2,1.761-.509s.158,1.329-.308,1.851a16.336,16.336,0,0,1-11.021,5.831A27.29,27.29,0,0,1,702.517,282.28Z" transform="translate(-659.553 -226.279)"/><path class="a" d="M682.406,228.151a26.917,26.917,0,0,1,0-2.77,2.47,2.47,0,0,1,2.638-2.5,2.425,2.425,0,0,1,2.565,2.381,29.313,29.313,0,0,1,0,5.532,2.546,2.546,0,0,1-2.77,2.638,2.652,2.652,0,0,1-2.488-2.933v-2.347Z" transform="translate(-656.1 -196.854)"/><path class="a" d="M754.128,228.077c0,.992.073,2,0,2.992a2.42,2.42,0,0,1-2.5,2.411,2.458,2.458,0,0,1-2.6-2.338,35.443,35.443,0,0,1,0-5.955,2.556,2.556,0,0,1,5.091.137C754.192,226.217,754.128,227.145,754.128,228.077Z" transform="translate(-694.204 -196.87)"/></g></svg>