<svg xmlns="http://www.w3.org/2000/svg" width="120" height="120" viewBox="0 0 120 120"><defs><style>.a{fill:#353535;}</style></defs><path class="a" d="M120.563,60.563a60,60,0,1,1-60-60A60,60,0,0,1,120.563,60.563ZM62.173,20.4c-13.185,0-21.594,5.554-28.2,15.425a2.907,2.907,0,0,0,.657,3.933l8.395,6.365a2.9,2.9,0,0,0,4.032-.513c4.322-5.482,7.285-8.661,13.864-8.661,4.943,0,11.056,3.181,11.056,7.974,0,3.623-2.991,5.484-7.871,8.22-5.691,3.19-13.222,7.161-13.222,17.095v.968a2.9,2.9,0,0,0,2.9,2.9H67.337a2.9,2.9,0,0,0,2.9-2.9v-.323c0-6.886,20.126-7.173,20.126-25.807C90.366,31.046,75.81,20.4,62.173,20.4Zm-1.61,60A11.129,11.129,0,1,0,71.692,91.53,11.141,11.141,0,0,0,60.563,80.4Z" transform="translate(-0.563 -0.563)"/></svg>