<svg xmlns="http://www.w3.org/2000/svg" width="20" height="20" viewBox="0 0 20 20"><defs><style>.a{fill:#757575;}</style></defs><path class="a" d="M6.055,0H.586A.586.586,0,0,0,0,.586V1.953H6.641V.586A.586.586,0,0,0,6.055,0Z"/><g transform="translate(0 3.125)"><path class="a" d="M19.706,82.461a.586.586,0,0,0-.587,0l-5.8,3.391V82.969a.586.586,0,0,0-.882-.506l-5.8,3.391V80H0V96.289a.586.586,0,0,0,.586.586H19.414A.586.586,0,0,0,20,96.289V82.969A.586.586,0,0,0,19.706,82.461ZM8.984,92.754a.586.586,0,0,1-.586.586H6.055a.586.586,0,0,1-.586-.586V90.41a.586.586,0,0,1,.586-.586H8.4a.586.586,0,0,1,.586.586Zm6.68,0a.586.586,0,0,1-.586.586H12.734a.586.586,0,0,1-.586-.586V90.41a.586.586,0,0,1,.586-.586h2.344a.586.586,0,0,1,.586.586Z" transform="translate(0 -80)"/></g></svg>