<svg xmlns="http://www.w3.org/2000/svg" width="150" height="150" viewBox="0 0 150 150"><defs><style>.a{fill:#081351;}.b{fill:#fff;}</style></defs><g transform="translate(-780 -1523)"><circle class="a" cx="75" cy="75" r="75" transform="translate(780 1523)"/><path class="b" d="M48.354,13.187A13.187,13.187,0,1,0,35.167,26.375,13.187,13.187,0,0,0,48.354,13.187ZM32.088,33.12c-8.15-4.989-21.351-6.36-27.995-6.738A3.8,3.8,0,0,0,0,30.1V60.709a3.778,3.778,0,0,0,3.639,3.716c6,.315,18.131,1.467,26.518,5.691a1.912,1.912,0,0,0,2.813-1.631V34.694a1.828,1.828,0,0,0-.882-1.574ZM66.24,26.382C59.6,26.758,46.4,28.131,38.246,33.12a1.862,1.862,0,0,0-.881,1.6V68.482a1.918,1.918,0,0,0,2.822,1.635C48.573,65.9,60.7,64.744,66.7,64.429a3.78,3.78,0,0,0,3.639-3.717V30.1A3.8,3.8,0,0,0,66.24,26.382Z" transform="translate(820 1563)"/></g></svg>