<svg xmlns="http://www.w3.org/2000/svg" width="26" height="26" viewBox="0 0 26 26"><defs><style>.a{fill:#fff;}.b{fill:#0077b7;}</style></defs><g transform="translate(-1266 -351)"><circle class="a" cx="13" cy="13" r="13" transform="translate(1266 351)"/><path class="b" d="M12.734,0H1.266A1.266,1.266,0,0,0,0,1.266V12.734A1.266,1.266,0,0,0,1.266,14H12.734A1.266,1.266,0,0,0,14,12.734V1.266A1.266,1.266,0,0,0,12.734,0Zm-8.4,12.089a.369.369,0,0,1-.369.369H2.395a.369.369,0,0,1-.369-.369V5.512a.369.369,0,0,1,.369-.369H3.964a.369.369,0,0,1,.369.369ZM3.179,4.524a1.49,1.49,0,1,1,1.49-1.49A1.49,1.49,0,0,1,3.179,4.524Zm9.351,7.595a.339.339,0,0,1-.339.339H10.508a.339.339,0,0,1-.339-.339V9.034c0-.46.135-2.016-1.2-2.016-1.038,0-1.248,1.065-1.29,1.543v3.558a.339.339,0,0,1-.339.339H5.71a.339.339,0,0,1-.339-.339V5.482a.339.339,0,0,1,.339-.339H7.338a.339.339,0,0,1,.339.339v.574A2.311,2.311,0,0,1,9.851,5.033c2.7,0,2.68,2.518,2.68,3.9v3.183Z" transform="translate(1272 357)"/></g></svg>