<svg id="Layer_1" data-name="Layer 1" xmlns="http://www.w3.org/2000/svg" viewBox="0 0 338.88 383.99"><title>megaphone</title><path d="M31.5,209c-6.67-1.68-11.59-5.94-16.37-10.64-15.41-15.14-31-30.11-46.3-44.94L.64,121.65l22.08,21.3c5.7-5.53,11.5-10.66,16.7-16.36,4-4.35,3.29-10.45-1.06-14.9s-8.77-8.52-13.71-13.3L43.42,84.09C49,90.5,55.21,96.15,59.63,103c8,12.39,6,28.59-4.11,39.48C50.34,148,44.63,153,39.11,158.37c3.76,3.82,6.79,7.3,10.22,10.32,15.6,13.74,8,36.53-9.7,39.93A2.2,2.2,0,0,0,39,209Z" transform="translate(152.96 174.99)"/><path d="M121.54,27.51C79.25,35.31,42.32,54.45,9.82,81.73L-71.68.11C-44.56-32.28-25.91-69.7-18-112.12Z" transform="translate(152.96 174.99)"/><path d="M-8.37,97.72c-.59.63-1.4,1.54-2.26,2.41q-25.57,25.59-51.15,51.16c-15.56,15.54-35.52,15.54-51,0q-14.59-14.57-29.15-29.16c-14.61-14.71-14.66-35-.07-49.69Q-115.86,46.18-89.57,20c.7-.7,1.44-1.34,1.81-1.68Zm-90.85-1c.7,5,3.22,9.1,7.38,10.85A10.78,10.78,0,0,0-79.4,105.2C-74,100-68.68,94.71-63.5,89.29a11.11,11.11,0,0,0,0-15.85c-4.43-4.43-11.35-4.38-16.14.27C-84.8,78.77-90,83.81-94.92,89.15-96.82,91.24-97.82,94.15-99.22,96.68Z" transform="translate(152.96 174.99)"/><path d="M10-171.95c5.69.12,11.24,2.74,16,7.49q27.24,27.38,54.6,54.63,46.53,46.53,93.06,93.05C180.39-10,183.18-2.2,180.29,7.1A22.39,22.39,0,0,1,145,18a45,45,0,0,1-3.85-3.56Q67.94-58.77-5.25-131.93c-7.19-7.18-10.12-15.35-6.73-25.18C-8.92-166-.4-171.89,10-171.95Z" transform="translate(152.96 174.99)"/><path d="M118.31-120.34c.83-1.51,1.77-4.49,3.7-6.53,7.13-7.53,14.53-14.8,21.94-22.05,4.81-4.71,11.64-4.73,16.12-.27a11,11,0,0,1,0,15.83q-11.19,11.59-22.81,22.77c-3.55,3.42-7.93,4.07-12.48,1.9C120.51-110.72,118.65-114.31,118.31-120.34Z" transform="translate(152.96 174.99)"/><path d="M73.45-152.62c0-3.74-.08-7.48,0-11.22A11.18,11.18,0,0,1,84.29-175a11.08,11.08,0,0,1,11.52,10.45c.33,8,.31,16,0,23.92A11.12,11.12,0,0,1,84.44-130c-6.15-.11-10.84-4.93-11-11.39C73.38-145.14,73.45-148.88,73.45-152.62Z" transform="translate(152.96 174.99)"/><path d="M163.13-62.51c-3.61,0-7.23.08-10.84,0-6.59-.17-11.41-5.07-11.33-11.41a11.13,11.13,0,0,1,11.31-11c7.48-.11,15-.13,22.43,0a11.27,11.27,0,0,1,11.22,11.2,11.33,11.33,0,0,1-11.2,11.23C170.86-62.41,167-62.51,163.13-62.51Z" transform="translate(152.96 174.99)"/></svg>