<svg xmlns="http://www.w3.org/2000/svg" width="513" height="363.483" viewBox="0 0 513 363.483">
  <g id="our_goal" data-name="our goal" transform="translate(-0.008 0.008)">
    <g id="Background_Complete" data-name="Background Complete" transform="translate(0.008 23.045)">
      <path id="Path_785" data-name="Path 785" d="M185.542,192.177s-4.671-3.82-11.994,7.507A155.62,155.62,0,0,0,163.2,217.7s-1.868,2.344-3.428.525-3.436-6.673-6.456-6.172-4.471,3.845-4.4,8.892-.184,16.09-.209,17.091-.734,2.361-1.985,1.293-8.158-10.535-12.453-6.99-1.793,17.516-1.551,19.093-.117,2.144-.834,2.444-2.769-3.1-4.838-5.714-4.93-5.28-7.24-3.028-4.012,12.395,4.012,30.028l4.254,7.907,9.008.417c19.326-.275,27.776-6.156,28.818-9.175s-2.586-4.5-5.839-5.247-7.182-1.126-7.232-1.927.342-1.385,1.843-1.827,15.231-4.171,16.59-9.576-10.143-7.582-11.677-8.258-.559-1.9.317-2.352,10.768-5.413,15.356-7.507,6.981-4.721,6.147-7.782-6.031-2.561-8.341-3.195-.993-3.336-.993-3.336a155.24,155.24,0,0,0,11.853-17.066c7.115-11.486,1.518-14.1,1.518-14.1" transform="translate(-54.419 -86.971)" fill="#f9f9f9"/>
      <path id="Path_786" data-name="Path 786" d="M128.18,286.654c5.263-8.408,14.872-23.2,23.046-35.95s15.573-24.281,20.853-32.663l6.272-9.934,1.668-2.7.45-.7.158-.234s-.042.083-.133.25l-.425.709-1.668,2.728c-1.443,2.369-3.562,5.78-6.2,10.009-5.263,8.408-12.628,19.968-20.811,32.705s-17.816,27.525-23.121,35.866" transform="translate(-56.128 -89.114)" fill="#e0e0e0"/>
      <path id="Path_787" data-name="Path 787" d="M163.228,224.49a2.92,2.92,0,0,1,.167.626c.092.409.2,1,.334,1.735.259,1.468.567,3.512.834,5.764l.734,5.772.234,1.752a2.929,2.929,0,0,1,.058.642,2.893,2.893,0,0,1-.167-.626c-.092-.409-.2-1-.325-1.735-.242-1.468-.525-3.512-.834-5.772l-.776-5.772-.242-1.752A2.9,2.9,0,0,1,163.228,224.49Z" transform="translate(-61.941 -92.435)" fill="#e0e0e0"/>
      <ellipse id="Ellipse_182" data-name="Ellipse 182" cx="9.5" cy="0.142" rx="9.5" ry="0.142" transform="translate(104.444 148.462) rotate(-10.19)" fill="#e0e0e0"/>
      <path id="Path_788" data-name="Path 788" d="M150.93,267.1a3.03,3.03,0,0,1,.659,0l1.793.192c1.51.158,3.6.367,5.914.517s4.412.217,5.93.25l1.8.042a3.038,3.038,0,0,1,.659.05,3.009,3.009,0,0,1-.659.058c-.425,0-1.043,0-1.8.05-1.526,0-3.628,0-5.947-.167s-4.412-.384-5.922-.592c-.751-.108-1.36-.2-1.785-.275A3.028,3.028,0,0,1,150.93,267.1Z" transform="translate(-59.902 -99.5)" fill="#e0e0e0"/>
      <path id="Path_789" data-name="Path 789" d="M143.53,249.92a2.593,2.593,0,0,1,.3.534l.717,1.5c.592,1.276,1.4,3.044,2.277,5s1.668,3.737,2.2,5l.642,1.535a2.594,2.594,0,0,1,.2.576,2.6,2.6,0,0,1-.3-.534l-.717-1.5c-.592-1.276-1.4-3.044-2.277-5s-1.668-3.737-2.2-5l-.642-1.535A2.594,2.594,0,0,1,143.53,249.92Z" transform="translate(-58.675 -96.654)" fill="#e0e0e0"/>
      <path id="Path_790" data-name="Path 790" d="M126.74,268.23a4.228,4.228,0,0,1,.375.692l.926,1.918c.776,1.668,1.827,3.887,2.969,6.381s2.169,4.771,2.894,6.423l.834,1.96a4.23,4.23,0,0,1,.275.734,4.227,4.227,0,0,1-.375-.692l-.926-1.918c-.776-1.668-1.827-3.887-2.969-6.389s-2.169-4.771-2.894-6.423l-.834-1.96a4.219,4.219,0,0,1-.275-.726Z" transform="translate(-55.889 -99.691)" fill="#e0e0e0"/>
      <path id="Path_791" data-name="Path 791" d="M136.59,289.346a4.843,4.843,0,0,1,.834,0l2.277.159c1.927.133,4.588.3,7.507.409s5.605.142,7.507.15H157a4.843,4.843,0,0,1,.834,0,4.838,4.838,0,0,1-.834.075c-.542,0-1.318.058-2.285.075-1.935.042-4.6.042-7.507-.067s-5.605-.309-7.507-.492c-.959-.092-1.735-.175-2.277-.25A4.858,4.858,0,0,1,136.59,289.346Z" transform="translate(-57.523 -103.191)" fill="#e0e0e0"/>
      <path id="Path_792" data-name="Path 792" d="M99.444,224.517a24.021,24.021,0,0,1-.234,4.112,29.894,29.894,0,0,1-3.745,11.035l-.083-.15h.184l-.083.15-23.355,41.43-.15.259-.158-.25L47.113,241.666,45.9,239.731l-.192-.3h.359l-.167.292a30.278,30.278,0,0,1-3.72-10.41,28.768,28.768,0,0,1-.367-5.413l.142-2.677.4-2.636a30.378,30.378,0,0,1,10.084-17.241,29.193,29.193,0,0,1,8.116-4.721l1.076-.4.534-.2.551-.15,2.177-.567a30.373,30.373,0,0,1,4.354-.525,29.193,29.193,0,0,1,4.237.075c.692.058,1.368.2,2.035.3l1,.158c.334.067.651.167.976.25l1.91.517,1.81.692c.3.117.6.217.884.35l.834.425,1.668.834a29.936,29.936,0,0,1,9.592,8.858,30.478,30.478,0,0,1,4.171,8.942,27.124,27.124,0,0,1,.734,3.537,19.5,19.5,0,0,1,.275,2.627l.058,1.626v.551a5.49,5.49,0,0,0-.042-.551l-.092-1.618a20.293,20.293,0,0,0-.317-2.619,27.635,27.635,0,0,0-.767-3.512A30.578,30.578,0,0,0,94,207.368a29.8,29.8,0,0,0-9.55-8.741l-1.668-.834-.834-.417c-.284-.125-.584-.225-.876-.342l-1.793-.676-1.893-.509c-.317-.083-.634-.184-.968-.25l-.993-.158c-.667-.092-1.335-.242-2.019-.292a28.957,28.957,0,0,0-4.171-.067,30.084,30.084,0,0,0-4.3.534l-2.152.567-.542.142-.525.2-1.059.4a28.927,28.927,0,0,0-7.991,4.7A30.028,30.028,0,0,0,42.717,218.7l-.392,2.6-.142,2.644a28.409,28.409,0,0,0,.367,5.347,29.911,29.911,0,0,0,3.678,10.268l.175.292h-.342l.167-.3,1.218,1.935,24.664,39.42H71.8l23.5-41.355.092.15h-.184l.092-.15a30.22,30.22,0,0,0,3.82-10.952c.192-1.326.25-2.361.292-3.053v-.784C99.436,224.6,99.444,224.517,99.444,224.517Z" transform="translate(-41.798 -87.499)" fill="#fff"/>
      <path id="Path_793" data-name="Path 793" d="M91.077,226.343a1.67,1.67,0,0,1,0-.292l-.058-.834v-.634a5.631,5.631,0,0,0-.117-.759,13.346,13.346,0,0,0-.384-1.877,17.433,17.433,0,0,0-2.019-4.829,18.1,18.1,0,0,0-21.687-7.765,18.123,18.123,0,0,0-8.408,6.281,17.516,17.516,0,0,0-2.594,5,17.908,17.908,0,0,0,0,11.4,17.516,17.516,0,0,0,2.569,5,18.491,18.491,0,0,0,8.374,6.348,18.142,18.142,0,0,0,21.762-7.657,17.433,17.433,0,0,0,2.044-4.821,13.347,13.347,0,0,0,.392-1.877c.042-.275.092-.525.125-.759l.042-.634.067-.834a1.67,1.67,0,0,1,0-.292,1.668,1.668,0,0,1,0,.292v1.476a7.2,7.2,0,0,1-.1.767,12.937,12.937,0,0,1-.359,1.9,17.291,17.291,0,0,1-2,4.9,18.244,18.244,0,0,1-22.07,7.849,18.338,18.338,0,0,1-8.558-6.423,17.85,17.85,0,0,1-2.627-5.088,18.258,18.258,0,0,1,0-11.677,17.842,17.842,0,0,1,2.652-5.071,18.536,18.536,0,0,1,8.591-6.406,18.329,18.329,0,0,1,22.029,7.991,17.282,17.282,0,0,1,1.977,4.9,12.938,12.938,0,0,1,.35,1.9c0,.275.083.534.1.767v1.476A1.668,1.668,0,0,1,91.077,226.343Z" transform="translate(-43.907 -89.692)" fill="#fff"/>
      <path id="Path_794" data-name="Path 794" d="M32.13,198.141l-10.61-7.407,2.586-3.7L31.221,192l9.208-11.7,3.545,2.794Z" transform="translate(-3.577 -52.958)" fill="#fff"/>
      <path id="Path_795" data-name="Path 795" d="M422.622,74.261a35.141,35.141,0,0,1,9.025,2.386l6.673-5.563,11.394,8.675-3.587,7.874a35.089,35.089,0,0,1,4.7,8.066l8.616.759,1.927,14.18-8.107,3.028a35.032,35.032,0,0,1-2.385,9.025l5.563,6.673-8.675,11.394-7.874-3.587a35.1,35.1,0,0,1-8.066,4.7l-.759,8.616-14.18,1.927-3.028-8.107a35.032,35.032,0,0,1-9.075-2.377l-6.673,5.563-11.394-8.675,3.595-7.874a35.168,35.168,0,0,1-4.7-8.066L377,122.122l-1.927-14.18,8.107-3.028a35.032,35.032,0,0,1,2.386-9.025L380,89.216l8.675-11.394,7.874,3.595a35.09,35.09,0,0,1,8.066-4.7l.759-8.616,14.18-1.927,3.028,8.107Zm-4.237,19.568a15.364,15.364,0,1,0,15.431,11.753A15.364,15.364,0,0,0,418.385,93.829Z" transform="translate(-97.087 -66.17)" fill="#fff"/>
      <path id="Path_796" data-name="Path 796" d="M271.025,129.213a22.813,22.813,0,0,1,5.839,1.551l4.3-3.612,7.4,5.63-2.327,5.113a22.78,22.78,0,0,1,3.053,5.238l5.6.492,1.251,9.175-5.221,2a22.73,22.73,0,0,1-1.551,5.839l3.612,4.3-5.655,7.424-5.113-2.327a22.78,22.78,0,0,1-5.238,3.053l-.492,5.6-9.175,1.251-1.968-5.263a22.738,22.738,0,0,1-5.839-1.551l-4.3,3.612-7.4-5.63L250.131,166a22.83,22.83,0,0,1-3.053-5.238l-5.6-.492-1.251-9.175,5.263-1.968a22.728,22.728,0,0,1,1.551-5.839l-3.67-4.362,5.63-7.4,5.113,2.327a22.779,22.779,0,0,1,5.238-3.053l.492-5.6,9.175-1.251,1.969,5.263Zm-2.761,12.7a10.335,10.335,0,1,1-.008,0Z" transform="translate(-74.717 -75.756)" fill="#fff"/>
      <path id="Path_797" data-name="Path 797" d="M364.99,210.555a12.169,12.169,0,0,1,3.336,2.2,16.04,16.04,0,0,1,5.155,9.475,16.248,16.248,0,0,1-.567,7.565A16.5,16.5,0,1,1,344.5,214.209a16.239,16.239,0,0,1,6.072-4.546,16.04,16.04,0,0,1,10.777-.742,12.17,12.17,0,0,1,3.645,1.627c-.05.1-1.276-.659-3.737-1.276a16.065,16.065,0,0,0-10.418.993,15.716,15.716,0,1,0,22.012,12.078,16.065,16.065,0,0,0-4.763-9.325C366.233,211.273,364.923,210.647,364.99,210.555Z" transform="translate(-91.386 -89.752)" fill="#fff"/>
      <path id="Path_798" data-name="Path 798" d="M376.3,191.727a3.5,3.5,0,0,1,.125-.551l.442-1.668,1.793-6.556.075.167-13.212-7.148.292-.05-5.989,6.823-.108.125h-.158a36.751,36.751,0,0,0-9.667-1.026H349.7l-.092-.158-4.429-7.932.384.158-14.413,4.237.259-.375.567,9.067v.234l-.2.117a36.543,36.543,0,0,0-7.549,6.072l-.167.175-.234-.067-8.725-2.5.475-.2-7.215,13.179-.092-.525,6.8,6.006.2.175-.067.259a36.633,36.633,0,0,0-1,9.617v.267l-.234.133-7.941,4.412.217-.525,4.171,14.422-.467-.334,9.067-.559h.284l.142.242a36.409,36.409,0,0,0,6.047,7.507h0c.058.209-.125-.459.125.467h0v.25l-.075.275-.158.551-.317,1.1-.626,2.185-1.243,4.354-.225-.534,13.17,7.232-.567.1,6.014-6.8.142-.192L342,254a36.385,36.385,0,0,0,9.617,1.059h.275l.133.234,4.4,7.941-.509-.209,14.422-4.171-.309.434-.542-9.067v-.25l.217-.125a36.423,36.423,0,0,0,7.565-6.047l.167-.175.234.067,8.725,2.5-.442.184,7.257-13.154.075.434-6.781-6.031-.15-.133.05-.192a36.65,36.65,0,0,0,1.084-9.651v-.183l.158-.092L395.6,213l-.133.317-4.171-14.438.209.15-9.067.492h-.092l-.042-.075a38.179,38.179,0,0,0-4.354-5.93l-1.243-1.335a3.794,3.794,0,0,1-.409-.45,4.582,4.582,0,0,1,.459.392c.292.275.734.692,1.293,1.285a35.625,35.625,0,0,1,4.5,5.88l-.133-.075,9.058-.609h.167l.05.158,4.262,14.4.058.209-.192.108-7.924,4.429.158-.275a37.136,37.136,0,0,1-1.043,9.826l-.1-.325,6.815,6,.209.184-.133.25-7.2,13.187-.15.267-.3-.083-8.733-2.5.4-.108a37.193,37.193,0,0,1-7.715,6.206l.2-.384.567,9.067v.342l-.325.092-14.413,4.221-.334.1-.175-.309-4.412-7.932.4.234a37.242,37.242,0,0,1-9.859-1.068l.45-.142-6.014,6.8-.242.275-.325-.175-13.179-7.223-.325-.175.1-.359,1.243-4.354.626-2.185.317-1.093.159-.551.075-.275v-.25h0c.25.926.067.259.125.459h0a37.3,37.3,0,0,1-6.2-7.732l.425.225-9.067.551h-.367l-.1-.35-4.171-14.422-.1-.35.317-.175,7.941-4.4-.234.4a37.469,37.469,0,0,1,1.084-9.851l.133.434-6.79-6.022-.259-.225.167-.3,7.24-13.162.158-.292.317.092,8.725,2.5-.4.108a37.209,37.209,0,0,1,7.732-6.181l-.184.35-.534-9.067v-.292l.275-.083,14.43-4.171.25-.075.125.234,4.379,7.957-.275-.158a37.144,37.144,0,0,1,9.809,1.1l-.267.083,6.039-6.773.125-.142.167.092,13.129,7.3.108.058v.108l-1.927,6.448-.517,1.668a4.481,4.481,0,0,1-.15.592Z" transform="translate(-85.492 -83.919)" fill="#fff"/>
      <path id="Path_799" data-name="Path 799" d="M388.4,164.432,375.31,112.384l53.249-.884Z" transform="translate(-62.269 -41.544)" fill="#f9f9f9"/>
      <rect id="Rectangle_692" data-name="Rectangle 692" width="30.261" height="122.38" transform="matrix(0.604, -0.797, 0.797, 0.604, 331.93, 104.156)" fill="#f9f9f9"/>
    </g>
    <g id="Character" transform="translate(380.369 44.086)">
      <path id="Path_800" data-name="Path 800" d="M545.879,371.8l6.765,15.339S539.3,399.169,540.3,402.155l30.211-12.044-9.559-24.331Z" transform="translate(-504.85 -136.915)" fill="#e8505b"/>
      <path id="Path_801" data-name="Path 801" d="M545.879,371.8l6.765,15.339S539.3,399.169,540.3,402.155l30.211-12.044-9.559-24.331Z" transform="translate(-504.85 -136.915)" opacity="0.5"/>
      <path id="Path_802" data-name="Path 802" d="M570.491,394.449l-1.059-2.419-28.576,12.487s-1.109,1.118-.584,2.01Z" transform="translate(-504.831 -141.27)" fill="#263238"/>
      <path id="Path_803" data-name="Path 803" d="M610.344,397.532,618.81,412s-11.861,13.462-10.56,16.29l28.643-15.414L624.632,389.8Z" transform="translate(-516.115 -140.9)" fill="#e8505b"/>
      <path id="Path_804" data-name="Path 804" d="M610.344,397.532,618.81,412s-11.861,13.462-10.56,16.29l28.643-15.414L624.632,389.8Z" transform="translate(-516.115 -140.9)" opacity="0.5"/>
      <path id="Path_805" data-name="Path 805" d="M636.881,417.017l-1.351-2.277-26.941,15.631s-.976,1.243-.35,2.06Z" transform="translate(-516.095 -145.038)" fill="#263238"/>
      <path id="Path_806" data-name="Path 806" d="M560.511,146.936l-18.567,1.443-.617-10.426s-7.507-.108-8.608-7.424-2.219-24.272-2.219-24.272h0a25.715,25.715,0,0,1,26.041-.384l1.2.684Z" transform="translate(-503.233 -93.241)" fill="#ffbe9d"/>
      <path id="Path_807" data-name="Path 807" d="M543.45,144.114a17.208,17.208,0,0,0,9.175-4.054s-1.627,5.755-9.025,6.122Z" transform="translate(-505.382 -99.469)" fill="#eb996e"/>
      <path id="Path_808" data-name="Path 808" d="M563.36,116.509c.117-.075,4.821-2.194,5.372,2.836s-4.621,4.538-4.646,4.4S563.36,116.509,563.36,116.509Z" transform="translate(-508.685 -95.478)" fill="#ffbe9d"/>
      <path id="Path_809" data-name="Path 809" d="M565.829,121.979a1.541,1.541,0,0,0,.25.1.884.884,0,0,0,.659-.058,2.177,2.177,0,0,0,.834-2.052,2.912,2.912,0,0,0-.384-1.226,1.018,1.018,0,0,0-.734-.6.45.45,0,0,0-.492.3.391.391,0,0,0,0,.259c0,.017-.117-.075-.1-.284a.559.559,0,0,1,.167-.334.667.667,0,0,1,.467-.184,1.243,1.243,0,0,1,1,.684,2.994,2.994,0,0,1,.459,1.368,2.286,2.286,0,0,1-1.043,2.31.943.943,0,0,1-.834-.05C565.846,122.1,565.813,122,565.829,121.979Z" transform="translate(-509.094 -95.793)" fill="#eb996e"/>
      <path id="Path_810" data-name="Path 810" d="M534.289,120.582a1.059,1.059,0,0,0,1.159.918,1.009,1.009,0,0,0,.943-1.093,1.059,1.059,0,0,0-1.16-.918,1.009,1.009,0,0,0-.943,1.093Z" transform="translate(-503.861 -96.055)" fill="#263238"/>
      <path id="Path_811" data-name="Path 811" d="M533.9,118.838c.15.117.834-.584,1.985-.734s2.027.292,2.135.133-.117-.3-.509-.509a2.9,2.9,0,0,0-1.735-.275,2.786,2.786,0,0,0-1.56.759C533.9,118.521,533.829,118.788,533.9,118.838Z" transform="translate(-503.793 -95.713)" fill="#263238"/>
      <path id="Path_812" data-name="Path 812" d="M547.419,119.062a1.059,1.059,0,0,0,1.159.918,1.009,1.009,0,0,0,.943-1.093,1.059,1.059,0,0,0-1.159-.918,1.009,1.009,0,0,0-.943,1.093Z" transform="translate(-506.039 -95.803)" fill="#263238"/>
      <path id="Path_813" data-name="Path 813" d="M547.2,117.218c.15.117.834-.584,1.985-.734s2.027.292,2.135.133-.117-.3-.509-.509a2.9,2.9,0,0,0-1.735-.275,2.785,2.785,0,0,0-1.56.759C547.213,116.91,547.13,117.168,547.2,117.218Z" transform="translate(-506 -95.444)" fill="#263238"/>
      <path id="Path_814" data-name="Path 814" d="M543.122,126.319a7.507,7.507,0,0,0-1.877-.075c-.292,0-.576,0-.651-.2a1.476,1.476,0,0,1,.075-.876l.542-2.31a37.985,37.985,0,0,0,1.1-6,38.077,38.077,0,0,0-1.585,5.889l-.509,2.319a1.668,1.668,0,0,0,0,1.151.726.726,0,0,0,.534.35,1.978,1.978,0,0,0,.5,0A7.4,7.4,0,0,0,543.122,126.319Z" transform="translate(-504.829 -95.62)" fill="#263238"/>
      <path id="Path_815" data-name="Path 815" d="M547.19,128.58c-.184,0,0,1.234-.943,2.252s-2.244,1.059-2.227,1.234.325.2.834.133a3.07,3.07,0,0,0,1.868-.959,2.677,2.677,0,0,0,.709-1.877C547.448,128.847,547.273,128.563,547.19,128.58Z" transform="translate(-505.476 -97.564)" fill="#263238"/>
      <path id="Path_816" data-name="Path 816" d="M546.106,112.029c.15.292,1.26,0,2.6,0s2.5.184,2.6-.117c.058-.142-.167-.4-.642-.642a4.521,4.521,0,0,0-3.962.117C546.256,111.621,546.014,111.9,546.106,112.029Z" transform="translate(-505.819 -94.626)" fill="#263238"/>
      <path id="Path_817" data-name="Path 817" d="M533.841,114.846c.234.225.976-.15,1.9-.292s1.743-.067,1.893-.367c.058-.142-.1-.384-.475-.576a2.786,2.786,0,0,0-3.061.525C533.807,114.454,533.732,114.729,533.841,114.846Z" transform="translate(-503.78 -95.041)" fill="#263238"/>
      <path id="Path_818" data-name="Path 818" d="M525.423,100.282a2.728,2.728,0,0,1,.659-2.561,1.935,1.935,0,0,1,2.5-.167,2.26,2.26,0,0,1,1.543-2.986c1.184-.242,2.327.517,3.528.667a5.5,5.5,0,0,0,3.336-.834c1.026-.592,1.952-1.335,2.994-1.893a9.459,9.459,0,0,1,12.753,3.82,4.171,4.171,0,0,1,4.646,1.051,6.89,6.89,0,0,1,1.718,4.663,15.425,15.425,0,0,1-.375,3.4.587.587,0,0,0,.05.284c.492,4.037.7,8.833-1.018,9.1-2.986.467-3.07-5.28-3.07-5.28-3.879-.9-3.278-6.606-4.321-7.315s-3.236-2.377-10.376,2.636A15.056,15.056,0,0,1,531,107.139h-.309a7,7,0,0,1-2.094-.559A3.937,3.937,0,0,1,526.715,105a2.16,2.16,0,0,1,.1-2.352,4.747,4.747,0,0,1-1.393-2.369Z" transform="translate(-502.376 -91.395)" fill="#263238"/>
      <path id="Path_819" data-name="Path 819" d="M501.66,111.459l.834,29.085,18.092-38.953-.45-3.612Z" transform="translate(-463.592 -60.342)" fill="#ebebeb"/>
      <path id="Path_820" data-name="Path 820" d="M550.372,256.776c-.667.217-38.369,38.327-37.535,45.175S540.5,359.5,540.5,359.5l19.176-9.45-17.95-44.441.234-2.761L563.9,284.877,562.733,256Z" transform="translate(-500.301 -118.703)" fill="#263238"/>
      <path id="Path_821" data-name="Path 821" d="M567.58,263.085c.434.667,6.965,60.531,8.708,63.634s27.959,54.217,27.959,54.217l19.46-7.841L599.96,316.91l2.711-53.166L601.2,248.73l-29.385,6.064Z" transform="translate(-509.385 -117.497)" fill="#263238"/>
      <path id="Path_822" data-name="Path 822" d="M575.956,329.155a3.333,3.333,0,0,1-.125-.6l-.284-1.727-.943-6.4-3.028-21.036-2.9-21.053-.834-6.389-.208-1.743a3.334,3.334,0,0,1-.042-.609,3.333,3.333,0,0,1,.125.6l.284,1.727.968,6.364,3.028,21.036,2.9,21.053.834,6.389.208,1.743a3.337,3.337,0,0,1,.017.642Z" transform="translate(-509.386 -120.959)" fill="#455a64"/>
      <ellipse id="Ellipse_183" data-name="Ellipse 183" cx="4.871" cy="0.209" rx="4.871" ry="0.209" transform="translate(87.219 207.016) rotate(-74.13)" fill="#455a64"/>
      <path id="Path_823" data-name="Path 823" d="M608.757,342.331a5.43,5.43,0,0,1-1.059-1.476,14.555,14.555,0,0,1-1.81-8.5,5.424,5.424,0,0,1,.367-1.785,18.993,18.993,0,0,0,2.5,11.761Z" transform="translate(-515.729 -131.074)" fill="#455a64"/>
      <path id="Path_824" data-name="Path 824" d="M540,307.75a10.259,10.259,0,0,1,5.38,4.913c-.108.067-1.034-1.293-2.5-2.636S539.907,307.858,540,307.75Z" transform="translate(-504.808 -127.288)" fill="#455a64"/>
      <path id="Path_825" data-name="Path 825" d="M543.5,305.63a8.341,8.341,0,0,1,2.911,4.7,24.914,24.914,0,0,1-1.41-2.386,24.908,24.908,0,0,1-1.5-2.319Z" transform="translate(-505.39 -126.936)" fill="#455a64"/>
      <path id="Path_826" data-name="Path 826" d="M546.256,190.56l4.821,23.9L555,247.821s16.165-2.26,23.046-4.437c7.991-2.5,25.373-4.679,25.373-4.679l-2.928,2.9c6.222-1.743,10.176-7.674,10.176-7.674-10.71-9.934-19.885-30.42-19.885-30.42l-8.149-40.471s-1.234-5.714-1.985-8.249-13.12-10.727-14.839-11.761l-1.076-.509-.342-3.245-1.276-.759-13.379,12.161a14.522,14.522,0,0,0-4.663,9.092A105.019,105.019,0,0,0,544.488,175C544.646,179.75,546.256,190.56,546.256,190.56Z" transform="translate(-505.544 -99.213)" fill="#081351"/>
      <path id="Path_827" data-name="Path 827" d="M551.4,151.184s-7.082,3.8-8.341,7.015,2.419,38.519,2.419,38.519l-25.415.475L520,212.34s40.371,3.186,41.939,1.009c2.127-2.953,4.588-30.536,4.588-30.536l.917-19.852S565.133,147.83,551.4,151.184Z" transform="translate(-501.491 -101.234)" fill="#081351"/>
      <g id="Group_1714" data-name="Group 1714" transform="translate(45.008 86.35)" opacity="0.3">
        <path id="Path_828" data-name="Path 828" d="M552.287,223.822a24.322,24.322,0,0,0,10.176.951c3.578-.334,7.223-2.294,8.575-5.622,1.034-2.552.6-5.422.759-8.174.133-2.386.726-4.721,1.084-7.09s-.834-6.673-1.668-8.967c0,0-.909,16.39-3.47,23.271a5.63,5.63,0,0,1-1.568,2.5,5.847,5.847,0,0,1-3.336.918,95.421,95.421,0,0,1-11.069-.225" transform="translate(-551.77 -194.92)" fill="#081351"/>
      </g>
      <path id="Path_829" data-name="Path 829" d="M567.4,168a2.27,2.27,0,0,1,0,.359v1.051l-.192,4.054-.334,6.414c-.15,2.5-.234,5.355-.542,8.491s-.6,6.573-.993,10.259-.834,7.624-1.543,11.736a25.561,25.561,0,0,1-.7,3.111,6.073,6.073,0,0,1-1.835,2.744,4.638,4.638,0,0,1-3.161,1.126h-3.378c-4.537-.108-9.225-.342-14.03-.609-7.215-.4-14.18-.834-20.661-1.3h-.183v-.184l.092-15.122v-.175h.175l24.531-.525,6.865-.117h2.427s-.209,0-.617.042l-1.8.075-6.856.217-24.523.676.175-.175-.05,15.122-.183-.2c6.5.442,13.446.884,20.661,1.285,4.8.259,9.484.492,14.013.609,1.134,0,2.252.042,3.336,0a4.237,4.237,0,0,0,2.919-1.034,5.681,5.681,0,0,0,1.718-2.569,25.482,25.482,0,0,0,.692-3.053c.709-4.1,1.159-8.032,1.585-11.677s.751-7.115,1.043-10.251.425-5.981.6-8.483l.409-6.406.275-4.045.083-1.051A2.286,2.286,0,0,1,567.4,168Z" transform="translate(-501.466 -104.104)" fill="#081351"/>
      <ellipse id="Ellipse_184" data-name="Ellipse 184" cx="7.34" cy="0.209" rx="7.34" ry="0.209" transform="matrix(0.005, -1, 1, 0.005, 23.303, 110.867)" fill="#081351"/>
      <path id="Path_830" data-name="Path 830" d="M522.657,209.451c-.05,0,.208-.309.684-.15a.784.784,0,0,1,.517.676.926.926,0,0,1-.517.909.951.951,0,0,1-1.026-.192.834.834,0,0,1-.25-.834c.117-.475.45-.584.459-.534a1.544,1.544,0,0,0-.167.567.584.584,0,0,0,.209.475.6.6,0,0,0,.592.092.567.567,0,0,0,.309-.5.492.492,0,0,0-.25-.425C522.924,209.393,522.682,209.5,522.657,209.451Z" transform="translate(-501.829 -110.948)" fill="#081351"/>
      <path id="Path_831" data-name="Path 831" d="M590.38,172.08s13.22,17.291,14.83,22,.367,11.477-2.327,14.705-4.863,1.918-4.863,1.918Z" transform="translate(-513.167 -104.781)" fill="#081351"/>
      <ellipse id="Ellipse_185" data-name="Ellipse 185" cx="3.395" cy="0.209" rx="3.395" ry="0.209" transform="translate(77.667 105.429) rotate(-9.74)" fill="#263238"/>
      <path id="Path_832" data-name="Path 832" d="M602,232a4.432,4.432,0,0,1,.359.909c.2.592.5,1.451.893,2.5a74.336,74.336,0,0,0,3.553,8.007,84.373,84.373,0,0,0,4.437,7.557c.617.934,1.126,1.668,1.485,2.21a4.422,4.422,0,0,1,.517.834,4.411,4.411,0,0,1-.651-.734c-.4-.492-.943-1.218-1.593-2.144a64.943,64.943,0,0,1-4.571-7.507,58.911,58.911,0,0,1-3.461-8.107c-.359-1.068-.617-1.943-.776-2.561A4.42,4.42,0,0,1,602,232Z" transform="translate(-515.095 -114.721)" fill="#263238"/>
      <g id="Group_1715" data-name="Group 1715" transform="translate(87.823 119.33)" opacity="0.3">
        <path id="Path_833" data-name="Path 833" d="M603.1,234.46c2.094,3.737,4.246,7.507,7.44,10.393A19.187,19.187,0,0,1,613.785,248a4.007,4.007,0,0,1,.417,4.254,1.335,1.335,0,0,1-1.318.709,1.668,1.668,0,0,1-.834-.7,51.513,51.513,0,0,1-8.775-17.241" transform="translate(-603.1 -234.46)"/>
      </g>
      <g id="Group_1716" data-name="Group 1716" transform="translate(78.331 69.943)" opacity="0.3">
        <path id="Path_834" data-name="Path 834" d="M599.46,211.166c1.81-1.3,2.444-3.778,2.177-5.989a22.168,22.168,0,0,0-2.177-6.281,103.484,103.484,0,0,1-6.448-18.851l-1.293-4.8,6.539,34.2Z" transform="translate(-591.72 -175.25)"/>
      </g>
      <path id="Path_835" data-name="Path 835" d="M561.77,148.445a29.186,29.186,0,0,1,2.5-2.5,29.187,29.187,0,0,1,2.5-2.5,14.646,14.646,0,0,1-4.929,4.93Z" transform="translate(-508.421 -100.03)" fill="#263238"/>
      <path id="Path_836" data-name="Path 836" d="M558.224,152.995c0,.067-.759.309-1.935.884a15.364,15.364,0,0,0-7.015,7.1c-.567,1.176-.792,1.96-.834,1.943a1.56,1.56,0,0,1,.092-.576,9.507,9.507,0,0,1,.5-1.493A13.8,13.8,0,0,1,556.2,153.6a9.518,9.518,0,0,1,1.485-.517C558.015,152.995,558.216,152.928,558.224,152.995Z" transform="translate(-506.209 -101.61)" fill="#263238"/>
      <path id="Path_837" data-name="Path 837" d="M600.714,214.161a1.472,1.472,0,0,1-.209-.334l-.525-.993-1.9-3.72h0c-.834-3.787-1.994-9.317-3.27-15.456l-3.053-14.939-.834-4.521-.217-1.234a.217.217,0,1,1,.083,0l.292,1.218,1,4.5,3.136,14.872c1.268,6.147,2.394,11.677,3.136,15.489h0l1.785,3.778.459,1.026a1.457,1.457,0,0,1,.117.317Z" transform="translate(-513.192 -104.856)" fill="#263238"/>
      <path id="Path_838" data-name="Path 838" d="M549.5,199.481a7.331,7.331,0,0,1-.192-1.251l-.375-3.428c-.3-2.894-.676-6.906-1.076-11.335s-.726-8.441-.951-11.344l-.242-3.445a7.341,7.341,0,0,1,0-1.268,7.356,7.356,0,0,1,.192,1.251l.375,3.428c.3,2.9.676,6.906,1.076,11.335s.726,8.433.951,11.344l.242,3.445a7.36,7.36,0,0,1,0,1.268Z" transform="translate(-505.91 -104.006)" fill="#263238"/>
      <path id="Path_839" data-name="Path 839" d="M516.744,207.671s-5.48-4.171-6.815-4.412c-1.026-.192-7.14-.092-9.951,0a2.01,2.01,0,0,0-2.019,1.952,1.127,1.127,0,0,0,0,.2,1.835,1.835,0,0,0,1.335,1.393,2.135,2.135,0,0,0-1.485,2.01c0,1.585,1.9,1.927,1.9,1.927a2.74,2.74,0,0,0-.275.242,1.893,1.893,0,0,0,.934,3.178l.834.2a1.877,1.877,0,0,0-1.159,1.576c0,2.094,4.729,2.5,4.729,2.5s11.619,1.835,11.869,1.752S516.744,207.671,516.744,207.671Z" transform="translate(-497.81 -109.935)" fill="#ffbe9d"/>
      <path id="Path_840" data-name="Path 840" d="M501.689,200.083a3.4,3.4,0,0,0,1.385,2.819l6.473-.25s-4.821-1.668-5.505-2.5a5.571,5.571,0,0,0-.926-.9.918.918,0,0,0-1.426.834Z" transform="translate(-498.453 -109.262)" fill="#ffbe9d"/>
      <path id="Path_841" data-name="Path 841" d="M506.285,203.231a9.509,9.509,0,0,1-2.953.209,11.986,11.986,0,0,1-2.953-.209,9.518,9.518,0,0,1,2.961-.209,12,12,0,0,1,2.944.209Z" transform="translate(-498.236 -109.908)" fill="#eb996e"/>
      <path id="Path_842" data-name="Path 842" d="M504.71,207.582a9.375,9.375,0,0,1-5.08-.184,47.843,47.843,0,0,1,5.08.184Z" transform="translate(-498.112 -110.639)" fill="#eb996e"/>
      <path id="Path_843" data-name="Path 843" d="M509.443,207.058c.1.058,0,.409-.392.651s-.734.209-.751.092.242-.259.525-.442S509.342,207.008,509.443,207.058Z" transform="translate(-499.55 -110.582)" fill="#eb996e"/>
      <ellipse id="Ellipse_186" data-name="Ellipse 186" cx="0.209" cy="2.786" rx="0.209" ry="2.786" transform="matrix(0.033, -0.999, 0.999, 0.033, 1.71, 101.048)" fill="#eb996e"/>
      <path id="Path_844" data-name="Path 844" d="M510.731,210.46c.05,0,.15.117.184.367a1.335,1.335,0,0,1-1.134,1.443c-.259,0-.409,0-.4-.092s.559-.184.926-.659S510.631,210.485,510.731,210.46Z" transform="translate(-499.729 -111.148)" fill="#eb996e"/>
      <ellipse id="Ellipse_187" data-name="Ellipse 187" cx="0.209" cy="2.511" rx="0.209" ry="2.511" transform="matrix(0.123, -0.992, 0.992, 0.123, 3.3, 104.656)" fill="#eb996e"/>
      <path id="Path_845" data-name="Path 845" d="M511.822,214.9c.05,0,.133.133.125.384a1.568,1.568,0,0,1-.35.876c-.475.576-1.009.784-1.068.7s.342-.475.734-.959S511.713,214.925,511.822,214.9Z" transform="translate(-499.919 -111.885)" fill="#eb996e"/>
      <path id="Path_846" data-name="Path 846" d="M543.04,152.68s-2.669,8.95-1.935,8.441,2.327-1.918,2.327-1.918Z" transform="translate(-504.971 -101.562)" fill="#ebebeb"/>
      <path id="Path_847" data-name="Path 847" d="M543.262,157.63l-1.46,3.487a4.731,4.731,0,0,0-.284,1.126c-.117.976-.258,2.769.325,2.886a1.96,1.96,0,0,0,1.56-.642Z" transform="translate(-505.044 -102.384)" fill="#263238"/>
      <path id="Path_848" data-name="Path 848" d="M588.439,157.757s-14.263-5.563-22.154-.651-9.334,12.753-14.038,12.753c-9.175,0-8.875-6.473-8.875-6.473l-1.952.592c0,1.326-2.127,10.843,7.507,12.011S562.657,164,571.348,163.98a28.86,28.86,0,0,1,15.289,4.7l6.247-3.954Z" transform="translate(-505.012 -101.961)" fill="#263238"/>
      <path id="Path_849" data-name="Path 849" d="M554,176.02a13.4,13.4,0,0,0,5.505-6.314c2.219-5.113,6.973-10.943,10.943-12.411s13.154-2.5,19.5,1.668l4.062,5.488-5.28,3.42a49.029,49.029,0,0,0-9.3-3.72c-6.556-1.835-10.543.234-14.355,3.845-.234.225-.459.45-.642.659A43.322,43.322,0,0,1,558.4,174,10.432,10.432,0,0,1,554,176.02Z" transform="translate(-507.132 -102.114)" fill="#455a64"/>
    </g>
    <g id="Flag" transform="translate(63.464 -0.008)">
      <path id="Path_850" data-name="Path 850" d="M186.451,78.851c-8.458,1.3-14.655-5.839-16.632-12.128-1.827-5.839-2.694-11.911-5.255-17.466-3.587-7.765-13.079-11.352-21.595-10.635s-17.107,5-24.639,9.025l2.077,46.71s16.415-17.516,24.3-17.8c13.162-.534,12.445,21.1,25.223,24.3,0,0,17.917,4.854,30.028-10.785,7.69-9.926,8.341-21.987,8.341-21.987S202.408,76.39,186.451,78.851Z" transform="translate(-117.95 -38.532)" fill="#081351"/>
      <path id="Path_851" data-name="Path 851" d="M117.879,40.17c.117,0,2.419,49.612,5.138,110.811s4.838,110.827,4.721,110.836S125.319,212.212,122.6,151,117.762,40.178,117.879,40.17Z" transform="translate(-117.874 -38.804)" fill="#263238"/>
      <g id="Group_1717" data-name="Group 1717" transform="translate(45.138 24.963)" opacity="0.2">
        <path id="Path_852" data-name="Path 852" d="M172,68.46a56.878,56.878,0,0,0,6.222,14.021c2.436,3.812,6.131,7.023,10.56,7.949a10.259,10.259,0,0,1,2.369.617,2.294,2.294,0,0,1,1.41,1.86c0,1.226-1.234,2.027-2.327,2.569a19.184,19.184,0,0,1-4.863,1.868c-1.71.317-3.053.5-4.229-.784a24.571,24.571,0,0,1-3.061-3.662c-3.862-6.581-5.772-15.99-6.089-23.43" transform="translate(-171.99 -68.46)"/>
      </g>
      <path id="Path_853" data-name="Path 853" d="M183.317,96.525a1.718,1.718,0,0,1-.384-.217c-.242-.158-.584-.4-1.009-.742a17.4,17.4,0,0,1-3.12-3.386,26.024,26.024,0,0,1-3.12-6.072,67.022,67.022,0,0,1-2.31-8.032,89.6,89.6,0,0,1-2.152-15.014c-.108-1.935-.125-3.512-.125-4.6V57.214a1.718,1.718,0,0,1,0-.434,1.719,1.719,0,0,1,.042.434l.05,1.243c.05,1.084.108,2.644.259,4.579a100.175,100.175,0,0,0,2.269,14.93,71.377,71.377,0,0,0,2.3,8.007,26.8,26.8,0,0,0,3,6.039,18.917,18.917,0,0,0,2.986,3.437C182.841,96.166,183.342,96.5,183.317,96.525Z" transform="translate(-126.702 -41.56)" fill="#263238"/>
    </g>
    <g id="Stairs" transform="translate(12.471 219.159)">
      <path id="Path_854" data-name="Path 854" d="M14.95,279.18l111.745,18.292V279.18Z" transform="translate(-14.95 -265.476)" fill="#f9f9f9"/>
      <path id="Path_855" data-name="Path 855" d="M171.04,328.73l111.745,18.292V328.73Z" transform="translate(-40.845 -273.696)" fill="#f9f9f9"/>
      <path id="Path_856" data-name="Path 856" d="M326.05,376.12l111.745,18.292V376.12Z" transform="translate(-66.561 -281.558)" fill="#f9f9f9"/>
      <path id="Path_857" data-name="Path 857" d="M480.86,413.83,592.6,432.13v-18.3Z" transform="translate(-92.243 -287.814)" fill="#f9f9f9"/>
      <rect id="Rectangle_693" data-name="Rectangle 693" width="111.745" height="13.704" fill="#081351"/>
      <g id="Group_1718" data-name="Group 1718" transform="translate(76.879)" opacity="0.3">
        <rect id="Rectangle_694" data-name="Rectangle 694" width="34.874" height="13.704"/>
      </g>
      <rect id="Rectangle_695" data-name="Rectangle 695" width="111.745" height="13.704" transform="translate(130.195 41.33)" fill="#081351"/>
      <g id="Group_1719" data-name="Group 1719" transform="translate(207.066 41.33)" opacity="0.3">
        <rect id="Rectangle_696" data-name="Rectangle 696" width="34.874" height="13.704"/>
      </g>
      <rect id="Rectangle_697" data-name="Rectangle 697" width="111.745" height="13.704" transform="translate(259.489 80.858)" fill="#081351"/>
      <g id="Group_1720" data-name="Group 1720" transform="translate(336.368 80.858)" opacity="0.3">
        <rect id="Rectangle_698" data-name="Rectangle 698" width="34.874" height="13.704"/>
      </g>
      <rect id="Rectangle_699" data-name="Rectangle 699" width="111.745" height="13.704" transform="translate(388.783 112.32)" fill="#081351"/>
      <g id="Group_1721" data-name="Group 1721" transform="translate(465.663 112.32)" opacity="0.3">
        <rect id="Rectangle_700" data-name="Rectangle 700" width="34.874" height="13.704"/>
      </g>
      <circle id="Ellipse_188" data-name="Ellipse 188" cx="3.036" cy="3.036" r="3.036" transform="translate(431.665 59.413)" fill="#ebebeb"/>
    </g>
  </g>
</svg>
