<svg xmlns="http://www.w3.org/2000/svg" width="22.11" height="18.678" viewBox="0 0 22.11 18.678"><defs><style>.a{fill:#ffc107;}.b{fill:#ffa000;}.c{fill:#ffd54f;}</style></defs><g transform="matrix(0.914, -0.407, 0.407, 0.914, -34.693, -70.049)"><path class="a" d="M17.745,86.909a1.613,1.613,0,0,0-1.613,1.613,1.6,1.6,0,0,0,.081.5l-1.308.832a2.016,2.016,0,0,1-2.644-.423l-1.282-1.569a1.6,1.6,0,0,0,.315-.95,1.613,1.613,0,1,0-3.226,0,1.6,1.6,0,0,0,.315.95L7.1,89.428a2.016,2.016,0,0,1-2.643.423L3.146,89.02a1.594,1.594,0,0,0,.081-.5,1.613,1.613,0,1,0-1.754,1.607l.953,5.719a.4.4,0,0,0,.4.337H16.535a.4.4,0,0,0,.4-.337l.953-5.719a1.613,1.613,0,0,0-.141-3.22Z" transform="translate(0 0)"/><ellipse class="b" cx="6.856" cy="2.016" rx="6.856" ry="2.016" transform="translate(2.823 93.765)"/><path class="c" d="M71.259,303.468c-3.608,0-7.259-.831-7.259-2.42s3.651-2.42,7.259-2.42,7.259.831,7.259,2.42S74.867,303.468,71.259,303.468Zm0-4.033c-4.236,0-6.453,1.048-6.453,1.613s2.216,1.613,6.453,1.613,6.453-1.049,6.453-1.613S75.5,299.436,71.259,299.436Z" transform="translate(-61.58 -205.267)"/></g></svg>