<svg xmlns="http://www.w3.org/2000/svg" width="150" height="150" viewBox="0 0 150 150"><defs><style>.a{fill:#081351;}.b{fill:#fff;}.c{fill:none;stroke:#081351;stroke-width:3px;}</style></defs><g transform="translate(-1050 -1523)"><circle class="a" cx="75" cy="75" r="75" transform="translate(1050 1523)"/><g transform="translate(698 -2950)"><g transform="translate(394.688 4511.063)"><path class="b" d="M23.77,20.435H38.942a.826.826,0,0,0,.834-.834h0a4.935,4.935,0,0,0-1.784-3.818L25.27,5.178a5.355,5.355,0,0,0-3.435-1.234h0A1.231,1.231,0,0,0,20.6,5.178V17.267A3.167,3.167,0,0,0,23.77,20.435Z" transform="translate(18.224 0.01)"/><path class="b" d="M34.49,17.276V3.938H12.648A5.351,5.351,0,0,0,7.312,9.273V65.3a5.351,5.351,0,0,0,5.336,5.336H52.664A5.351,5.351,0,0,0,58,65.3V24.779H41.993A7.514,7.514,0,0,1,34.49,17.276Z" transform="translate(0 0)"/></g><path class="c" d="M0,0H35.334" transform="translate(409.677 4548.5)"/><path class="c" d="M0,0H35.334" transform="translate(409.677 4558.5)"/><path class="c" d="M0,0H35.334" transform="translate(409.677 4568.5)"/></g></g></svg>