<svg xmlns="http://www.w3.org/2000/svg" width="211.859" height="208.093" viewBox="0 0 211.859 208.093"><g transform="translate(83.356) rotate(36)"><path d="M154.14,105.146q-14.362,35.72-77.558,35.721H56.727v22.691a5.641,5.641,0,0,1-9.662,3.989L1.684,122.165a5.566,5.566,0,0,1,0-7.978L47.066,68.8a5.673,5.673,0,0,1,9.662,3.989V95.486H76.582q8.684,0,15.553-.53a112.14,112.14,0,0,0,13.65-1.907,50.661,50.661,0,0,0,11.791-3.767,41.731,41.731,0,0,0,9.351-6.16,30.881,30.881,0,0,0,7.093-8.953,48.238,48.238,0,0,0,4.3-12.275A75.5,75.5,0,0,0,139.87,45.85q0-4.874-.443-10.9a18.158,18.158,0,0,0-.222-2.083,18.241,18.241,0,0,1-.221-2.348,3.308,3.308,0,0,1,.752-2.215,2.593,2.593,0,0,1,2.084-.885,3.029,3.029,0,0,1,2.482,1.507,10.132,10.132,0,0,1,1.152,1.951q.532,1.151,1.2,2.658c.444,1,.754,1.712.931,2.126q11.256,25.258,11.256,39.973Q158.837,93.268,154.14,105.146Z" transform="translate(0 -27.417)"/></g></svg>