<svg xmlns="http://www.w3.org/2000/svg" width="297.922" height="263" viewBox="0 0 297.922 263"><defs><style>.a{fill:#081351;}</style></defs><g transform="translate(0.05 0.037)"><path class="a" d="M297.759,167.87H0V30.862A35.12,35.12,0,0,1,2.225,18.18,27.447,27.447,0,0,1,8.513,8.446,27.748,27.748,0,0,1,18.3,2.2,35.725,35.725,0,0,1,31.029,0H266.476c9.381,0,17.273,2.934,22.821,8.485s8.486,13.459,8.486,22.85V163.213c-.023,1.459-.023,2.869-.023,4.654h0ZM38.408,126.55c-.656,0-1.314.023-1.951.068a8.229,8.229,0,0,0-2.359.581,5.832,5.832,0,0,0-3.744,5.789c.072,3.572,2.457,5.814,6.38,6,.347.011.721.016,1.212.016.4,0,.81,0,1.2-.008h.006c.4,0,.806-.008,1.209-.008H148.934l109.665-.006c.284.008.573.011.858.011.8,0,1.613-.031,2.4-.092a7.024,7.024,0,0,0,2.2-.6,5.629,5.629,0,0,0,3.339-5.08,5.716,5.716,0,0,0-4.766-6.344,21.965,21.965,0,0,0-3.874-.344c-.412,0-.809.011-1.179.032H39.366C39.088,126.555,38.791,126.55,38.408,126.55ZM66.879,39.916a23.033,23.033,0,0,0-15.015,5.566A21.53,21.53,0,0,0,49.472,47.9c-5.733,6.713-8.785,18.1-.154,29.917l-.493.324q-.205.134-.4.264l-.117.074,0,.006-.077.05c-.782.513-1.456.956-2.125,1.461-10.221,7.4-15.523,17.336-15.763,29.541a8.683,8.683,0,0,0,.166,1.912,5.768,5.768,0,0,0,5.457,4.837c.169.013.339.019.508.019,3.291,0,5.781-2.486,6.193-6.187a10.473,10.473,0,0,0,.072-1.259l0-.007,0-.039V108.8c0-.351.012-.626.027-.865a22.56,22.56,0,0,1,2.424-8.655,24.4,24.4,0,0,1,5.369-7.009,24.9,24.9,0,0,1,7.46-4.7,23.134,23.134,0,0,1,8.693-1.713,21.983,21.983,0,0,1,3.813.331c.981.171,1.929.382,2.818.627a22.934,22.934,0,0,1,12.225,7.906,28.464,28.464,0,0,1,5.557,14.713c.438,3.912,2.248,6.312,5.1,6.759a6.127,6.127,0,0,0,1.013.08c.216,0,.438-.01.658-.029,3.776-.347,5.922-3.377,5.6-7.906-.667-9.531-4.2-17.568-10.5-23.888A42.39,42.39,0,0,0,87,79.5c-.487-.339-.977-.7-1.449-1.04l-.071-.052-.046-.033-.038-.026-.041-.032-.008-.005-.29-.212-.077-.056c-.161-.117-.328-.238-.49-.354,10.311-14.026,3.056-25.614.588-28.831a22.545,22.545,0,0,0-2.989-3.2A23.014,23.014,0,0,0,66.879,39.916Zm127.823,65.4,63.881.029c.375.017.717.026,1.048.026a21.213,21.213,0,0,0,2.587-.157,6.135,6.135,0,0,0,5.226-6.428,5.98,5.98,0,0,0-5.813-5.814c-.455-.044-.914-.048-1.309-.048h-.457l-.21,0H130.213c-.269-.013-.54-.019-.813-.019a18.017,18.017,0,0,0-2.092.122,5.819,5.819,0,0,0-5.191,5.274,5.642,5.642,0,0,0,3.739,6.379,12.854,12.854,0,0,0,4.025.646c.192,0,.387,0,.581-.013h13.587c8.6.015,16.993.023,24.961.023C176.453,105.339,184.617,105.332,194.7,105.317ZM130.557,71.475h.035c.324,0,.65-.007.938-.013h.015l21.037,0H194.7l63.839-.006.194.007c.245.008.495.012.744.012a23.216,23.216,0,0,0,2.695-.157,5.585,5.585,0,0,0,5.181-5.586v-.018s0-.006,0-.009,0-.006,0-.009a5.993,5.993,0,0,0-1.025-4.066.165.165,0,0,1-.018-.023l-.016-.022-.035-.046-.026-.032-.03-.037,0,0s0,0,0,0,0,0,0,0l-.008-.01a5.15,5.15,0,0,0-.675-.686.018.018,0,0,0-.006,0,.01.01,0,0,0-.006,0l-.007-.006-.017-.014-.03-.025-.021-.018-.024-.019-.017-.014a6.788,6.788,0,0,0-2.4-1.176,15.9,15.9,0,0,0-3.666-.427c-.242,0-.451,0-.634.013H130.939c-.185-.009-.4-.013-.64-.013s-.491.006-.74.017a17.026,17.026,0,0,0-2.926.382c-.224.058-.45.128-.67.206l-.008,0-.009,0-.049.018a5.546,5.546,0,0,0-3.792,4.953,7.869,7.869,0,0,0-.043.977,5.639,5.639,0,0,0,.063.8,5.865,5.865,0,0,0,5.328,4.916l.1.013c1,.087,2.011.132,2.992.132Z" transform="translate(-0.005 -0.037)"/><path class="a" d="M148.482,388.627V367.066H77.267c-19.119,0-31.2-12.194-31.2-31.393V318.72H343.917c-.639,9.861,1.5,19.788-1.977,29.4-4.266,11.8-14.766,18.894-28.159,18.894-22.527.073-45.055,0-67.582,0h-4.6v21.561h17.339c3.27,0,6.54-.109,9.8.08a5.879,5.879,0,0,1,5.683,5.93,6.039,6.039,0,0,1-5.348,6.286,19.62,19.62,0,0,1-2.907.08H123.775a22.978,22.978,0,0,1-2.543-.051,6.036,6.036,0,0,1-5.726-6.308,5.879,5.879,0,0,1,6.09-5.908c7.143-.138,14.287-.058,21.43-.065Z" transform="translate(-46.12 -138.01)"/><path class="a" d="M134.313,142a10.544,10.544,0,1,1-10.2,10.491A10.544,10.544,0,0,1,134.313,142Z" transform="translate(-67.449 -89.708)"/></g></svg>