<svg xmlns="http://www.w3.org/2000/svg" width="150" height="150" viewBox="0 0 150 150"><defs><style>.a{fill:#081351;}.b{fill:#fff;}</style></defs><g transform="translate(-240 -1523)"><circle class="a" cx="75" cy="75" r="75" transform="translate(240 1523)"/><g transform="translate(282 1566)"><path class="b" d="M340.24,267.166h-.7v-4.187a6.979,6.979,0,0,0-13.958,0v4.188h-.7A4.891,4.891,0,0,0,320,272.052v9.77a4.891,4.891,0,0,0,4.885,4.886H340.24a4.891,4.891,0,0,0,4.885-4.886v-9.77a4.891,4.891,0,0,0-4.885-4.886Zm-10.469-4.187a2.791,2.791,0,0,1,5.583,0v4.188h-5.583Zm0,0" transform="translate(-278.125 -222.5)"/><path class="b" d="M37.687,272.052a9.088,9.088,0,0,1,5.584-8.375v-.7a11.036,11.036,0,0,1,1.091-4.732A13.2,13.2,0,0,0,36.99,256H13.26A13.276,13.276,0,0,0,0,269.26v9.771a2.1,2.1,0,0,0,2.094,2.094H37.688Zm0,0" transform="translate(0 -222.5)"/><path class="b" d="M113.249,13.958A13.958,13.958,0,1,1,99.29,0,13.958,13.958,0,0,1,113.249,13.958Zm0,0" transform="translate(-74.165)"/></g></g></svg>