<svg xmlns="http://www.w3.org/2000/svg" width="12.5" height="10.417" viewBox="0 0 12.5 10.417">
  <g id="suitcase" transform="translate(0 -2)">
    <path id="Path_256" data-name="Path 256" d="M11.646,4.344a.521.521,0,0,1-.521-.521V3.042H9.042v.781A.521.521,0,1,1,8,3.823V3.042A1.043,1.043,0,0,1,9.042,2h2.083a1.043,1.043,0,0,1,1.042,1.042v.781A.521.521,0,0,1,11.646,4.344Z" transform="translate(-3.833)" fill="#757575"/>
    <path id="Path_257" data-name="Path 257" d="M6.62,13.578a1.073,1.073,0,0,1-.37.063,1.141,1.141,0,0,1-.4-.073L0,11.62v3.974a1.431,1.431,0,0,0,1.432,1.432h9.635A1.431,1.431,0,0,0,12.5,15.594V11.62Z" transform="translate(0 -4.61)" fill="#757575"/>
    <path id="Path_258" data-name="Path 258" d="M12.5,6.432V7.625L6.375,9.667a.385.385,0,0,1-.25,0L0,7.625V6.432A1.431,1.431,0,0,1,1.432,5h9.635A1.431,1.431,0,0,1,12.5,6.432Z" transform="translate(0 -1.438)" fill="#757575"/>
  </g>
</svg>
