<svg xmlns="http://www.w3.org/2000/svg" width="12.751" height="12.751" viewBox="0 0 12.751 12.751">
  <g id="switch" transform="translate(-0.008 -1)">
    <g id="Group_506" data-name="Group 506" transform="translate(0.008 1)">
      <g id="Group_505" data-name="Group 505" transform="translate(0)">
        <path id="Path_252" data-name="Path 252" d="M5.852,134.321v-4.782a.531.531,0,0,0-.531-.531H.539a.531.531,0,0,0-.531.531v4.782a.531.531,0,0,0,.531.531H5.321A.531.531,0,0,0,5.852,134.321ZM3.2,133.258H2.133a.531.531,0,0,1,0-1.063H3.2a.531.531,0,0,1,0,1.063Zm.531-1.594H2.133a.531.531,0,1,1,0-1.063H3.727a.531.531,0,1,1,0,1.063Z" transform="translate(-0.008 -125.82)" fill="#757575"/>
        <path id="Path_253" data-name="Path 253" d="M107.577,3.508c1.021-.988,3.322-1.167,4.8-.539l-.162.054a.531.531,0,1,0,.336,1.008l1.2-.4c.006,0,.01-.007.016-.009a.514.514,0,0,0,.087-.05.512.512,0,0,0,.092-.062s.011-.006.015-.01a.485.485,0,0,0,.04-.063.528.528,0,0,0,.062-.095.5.5,0,0,0,.027-.1.512.512,0,0,0,.018-.1.53.53,0,0,0-.014-.115.551.551,0,0,0-.009-.072l-.531-1.594a.531.531,0,0,0-1.008.336l.076.226c-1.864-.722-4.473-.453-5.786.818a.531.531,0,1,0,.739.763Z" transform="translate(-104.02 -1)" fill="#757575"/>
        <path id="Path_254" data-name="Path 254" d="M113.385,385.672c-1.021.988-3.322,1.167-4.8.539l.553-.184a.531.531,0,0,0-.336-1.008l-1.594.531c-.006,0-.01.007-.016.009a.52.52,0,0,0-.092.053.526.526,0,0,0-.087.06s-.011.005-.015.01a.489.489,0,0,0-.04.063.529.529,0,0,0-.062.095,1.2,1.2,0,0,0-.045.2.529.529,0,0,0,.014.115.553.553,0,0,0,.009.072l.531,1.594a.531.531,0,0,0,.5.363.521.521,0,0,0,.168-.028.532.532,0,0,0,.336-.672l-.076-.226a6.225,6.225,0,0,0,2.221.4,5.218,5.218,0,0,0,3.565-1.215.531.531,0,1,0-.739-.763Z" transform="translate(-104.191 -375.428)" fill="#757575"/>
        <path id="Path_255" data-name="Path 255" d="M282.654,129.008h-4.782a.531.531,0,0,0-.531.531v4.782a.531.531,0,0,0,.531.531h4.782a.531.531,0,0,0,.531-.531v-4.782A.531.531,0,0,0,282.654,129.008Zm-2.125,4.25h-1.063a.531.531,0,0,1,0-1.063h1.063a.531.531,0,0,1,0,1.063Zm.531-1.594h-1.594a.531.531,0,1,1,0-1.063h1.594a.531.531,0,1,1,0,1.063Z" transform="translate(-270.434 -125.82)" fill="#757575"/>
      </g>
    </g>
  </g>
</svg>
