<svg height="595pt" viewBox="-18 -48 595.99869 595" width="595pt" xmlns="http://www.w3.org/2000/svg"><path d="m323.089844 141.847656c.007812-6.289062-5.082032-11.394531-11.375-11.40625h-64.722656c-6.285157.011719-11.375 5.117188-11.367188 11.40625v7.335938h87.464844zm0 0"/><path d="m163.460938 287.871094c-3.550782.089844-7.0625-.625-10.300782-2.074219v43.148437c0 6.5625 4.296875 11.40625 10.300782 11.40625h231.792968c6 0 10.300782-4.84375 10.300782-11.40625v-43.148437c-3.238282 1.449219-6.757813 2.164063-10.300782 2.074219zm0 0"/><path d="m504.285156 34.546875c-25.058594-22.640625-56.675781-34.609375-91.433594-34.609375-40.09375 0-84.226562 16.65625-127.636718 48.160156-3.542969 2.570313-8.34375 2.539063-11.847656-.078125-44.058594-32.867187-87.210938-49.535156-128.253907-49.535156-34.84375 0-66.417969 12.019531-91.308593 34.753906-25.152344 22.984375-42.371094 55.824219-49.792969 94.980469-23.117188 120.445312 51.886719 280.972656 271.484375 368.214844 1.246094.441406 2.535156.730468 3.847656.859375 1.300781-.128907 2.582031-.414063 3.816406-.847657 101.78125-41.289062 180.484375-101.398437 227.613282-173.828124 40.539062-62.304688 56.136718-131.316407 43.921874-194.316407-7.792968-38.574219-25.21875-70.992187-50.410156-93.753906zm-78.742187 197.441406v96.957031c0 17.589844-13.257813 31.394532-30.289063 31.394532h-231.792968c-17.03125 0-30.292969-13.804688-30.292969-31.394532v-148.046874c0-17.585938 13.261719-31.714844 30.292969-31.714844h52.171874v-7.335938c.007813-17.324218 14.039063-31.375 31.359376-31.398437h64.722656c17.328125.023437 31.359375 14.074219 31.363281 31.398437v7.335938h52.175781c17.03125 0 30.289063 14.128906 30.289063 31.714844zm0 0"/><path d="m395.253906 169.171875h-231.792968c-6 0-10.300782 5.160156-10.300782 11.726563v75.058593c0 6.566407 4.296875 11.925781 10.300782 11.925781h231.792968c6 0 10.300782-5.359374 10.300782-11.925781v-75.058593c0-6.566407-4.296876-11.726563-10.300782-11.726563zm-95.90625 57.476563h-39.980468c-5.519532 0-9.996094-4.476563-9.996094-9.996094 0-5.519532 4.476562-9.996094 9.996094-9.996094h39.980468c5.519532 0 9.996094 4.476562 9.996094 9.996094 0 5.519531-4.476562 9.996094-9.996094 9.996094zm0 0"/></svg>