<svg xmlns="http://www.w3.org/2000/svg" width="20" height="20.003" viewBox="0 0 20 20.003"><defs><style>.a{fill:#757575;}</style></defs><g transform="translate(-0.004)"><g transform="translate(0.004)"><path class="a" d="M23.441,5.588l-.3.095-1.594.142-.45.719-.327-.1L19.5,5.3,19.319,4.7l-.246-.634-.8-.715-.94-.184-.022.43.921.9.451.531-.507.265-.413-.122-.618-.258.021-.5-.811-.334-.269,1.172-.818.185.081.654,1.065.205L16.6,5.253l.879.13.409.239h.656l.449.9,1.19,1.207L20.1,8.2l-.96-.122-1.658.837-1.194,1.432-.155.634H15.7l-.8-.368-.776.368.193.818.337-.389.593-.018-.041.735.492.144.491.551.8-.225.916.145,1.063.286.531.062.9,1.022,1.738,1.022-1.124,2.147-1.186.551-.45,1.227L17.665,20.2l-.183.661A9.988,9.988,0,0,0,23.441,5.588Z" transform="translate(-5.135 -1.151)"/><path class="a" d="M11.154,17.965l-.728-1.35.669-1.393-.669-.2-.751-.754-1.663-.373-.552-1.155v.686H7.216L5.783,11.482v-1.6L4.732,8.177l-1.668.3H1.94L1.375,8.1,2.1,7.532,1.377,7.7A9.988,9.988,0,0,0,10,22.739a10.47,10.47,0,0,0,1.255-.087l-.1-1.212s.459-1.8.459-1.86S11.154,17.965,11.154,17.965Z" transform="translate(-0.004 -2.736)"/><path class="a" d="M5.025,3.225,6.8,2.977l.819-.449.921.266,1.472-.081.5-.793.735.121,1.786-.167.492-.542.694-.464.982.148.358-.054A9.969,9.969,0,0,0,3.6,3.636H3.6ZM11.731.995,12.752.432l.656.379-.949.723-.907.091-.408-.265Zm-3.025.082.451.188.59-.188.322.557-1.363.358L8.05,1.608S8.691,1.2,8.706,1.077Z" transform="translate(-1.309)"/></g></g></svg>