<svg width="24" height="24" viewBox="0 0 24 24" fill="none" xmlns="http://www.w3.org/2000/svg">
  <path fill-rule="evenodd" clip-rule="evenodd" d="M9 12C9 11.4477 9.48716 11 10 11H21C21.5128 11 22 11.4477 22 12C22 12.5523 21.5128 13 21 13H10C9.48716 13 9 12.5523 9 12Z" fill="#7855C3"/>
  <path d="M7 12C7 12.5523 6.55228 13 6 13C5.44772 13 5 12.5523 5 12C5 11.4477 5.44772 11 6 11C6.55228 11 7 11.4477 7 12Z" fill="#7855C3"/>
  <circle cx="2" cy="12" r="1" fill="#7855C3"/>
  <path fill-rule="evenodd" clip-rule="evenodd" d="M22.7071 11.2929C23.0976 11.6834 23.0976 12.3166 22.7071 12.7071L18.7071 16.7071C18.3166 17.0976 17.6834 17.0976 17.2929 16.7071C16.9024 16.3166 16.9024 15.6834 17.2929 15.2929L21.2929 11.2929C21.6834 10.9024 22.3166 10.9024 22.7071 11.2929Z" fill="#7855C3"/>
  <path fill-rule="evenodd" clip-rule="evenodd" d="M22.7071 12.7071C23.0976 12.3166 23.0976 11.6834 22.7071 11.2929L18.7071 7.29289C18.3166 6.90237 17.6834 6.90237 17.2929 7.29289C16.9024 7.68342 16.9024 8.31658 17.2929 8.70711L21.2929 12.7071C21.6834 13.0976 22.3166 13.0976 22.7071 12.7071Z" fill="#7855C3"/>
</svg>