<svg height="456pt" viewBox="-27 0 455 456" width="456pt" xmlns="http://www.w3.org/2000/svg"><path d="m128.5 24h144v24h24v-40c0-4.40625-3.585938-8-8-8h-176c-4.414062 0-8 3.59375-8 8v40h24zm0 0"/><path d="m312.5 160h-24v8c0 13.230469-10.769531 24-24 24s-24-10.769531-24-24v-8h-80v8c0 13.230469-10.769531 24-24 24s-24-10.769531-24-24v-8h-24c-22.609375 0-42.792969-10.496094-56-26.847656v130.847656c0 13.230469 10.769531 24 24 24h72v-24c-8.824219 0-16-7.175781-16-16v-16c0-8.824219 7.175781-16 16-16h144c8.824219 0 16 7.175781 16 16v16c0 8.824219-7.175781 16-16 16v24h72c13.230469 0 24-10.769531 24-24v-130.847656c-13.207031 16.351562-33.390625 26.847656-56 26.847656zm0 0"/><path d="m32.5 88c0 30.878906 25.128906 56 56 56h24v-8c0-13.230469 10.769531-24 24-24s24 10.769531 24 24v8h80v-8c0-13.230469 10.769531-24 24-24s24 10.769531 24 24v8h24c30.871094 0 56-25.121094 56-56v-24h-336zm0 0"/><path d="m176.5 344c0 7.976562-4.441406 15.160156-11.566406 18.734375-12.601563 6.296875-20.433594 18.953125-20.433594 33.042969v28.222656h112v-28.222656c0-14.089844-7.832031-26.746094-20.425781-33.042969-7.132813-3.574219-11.574219-10.757813-11.574219-18.734375h-16v32h-16v-32zm32 48v16h-16v-16zm0 0"/><path d="m128.5 440h144v16h-144zm0 0"/><path d="m256.5 264h-112v28.222656c0 14.089844 7.832031 26.746094 20.425781 33.042969 1.46875.734375 2.75 1.710937 3.972657 2.734375h63.203124c1.222657-1.015625 2.503907-2 3.972657-2.734375 12.59375-6.296875 20.425781-18.953125 20.425781-33.042969zm0 0"/><path d="m128.5 232h144v16h-144zm0 0"/><path d="m272.5 168v-32c0-4.40625-3.585938-8-8-8s-8 3.59375-8 8v32c0 4.40625 3.585938 8 8 8s8-3.59375 8-8zm0 0"/><path d="m144.5 168v-32c0-4.40625-3.585938-8-8-8s-8 3.59375-8 8v32c0 4.40625 3.585938 8 8 8s8-3.59375 8-8zm0 0"/><path d="m64.5 384h16v16h-16zm0 0"/><path d="m96.5 384h16v16h-16zm0 0"/><path d="m32.5 384h16v16h-16zm0 0"/><path d="m.5 384h16v16h-16zm0 0"/><path d="m352.5 384h16v16h-16zm0 0"/><path d="m384.5 384h16v16h-16zm0 0"/><path d="m320.5 384h16v16h-16zm0 0"/><path d="m288.5 384h16v16h-16zm0 0"/></svg>