<svg id="Layer_1" data-name="Layer 1" xmlns="http://www.w3.org/2000/svg" viewBox="0 0 64.21 64.21"><defs><style>.cls-1{fill:#1b1b4e;}.cls-2{fill:#fff;}</style></defs><circle class="cls-1" cx="32.11" cy="32.11" r="32.11"/><path class="cls-2" d="M45.1,15.63H43.93V14.34a2.85,2.85,0,1,0-5.7,0v1.28H35.31V14.34a2.85,2.85,0,1,0-5.7,0v1.28H26.69V14.34a2.85,2.85,0,1,0-5.69,0v1.28H19.5A4.54,4.54,0,0,0,15,20.16V45.75a4.53,4.53,0,0,0,4.53,4.53H45.1a4.53,4.53,0,0,0,4.53-4.53V20.16a4.53,4.53,0,0,0-4.53-4.53Zm-5.27-1.29a1.25,1.25,0,1,1,2.5,0v5.23a1.25,1.25,0,1,1-2.5,0Zm-8.61,0a1.25,1.25,0,1,1,2.49,0v5.23a1.25,1.25,0,1,1-2.49,0Zm-8.62,0a1.25,1.25,0,1,1,2.49,0v5.23a1.25,1.25,0,1,1-2.49,0ZM47,45.75a1.87,1.87,0,0,1-1.86,1.87H19.5a1.87,1.87,0,0,1-1.87-1.87V22.29H47Zm0,0"/><rect class="cls-2" x="20.03" y="27.01" width="4.9" height="4.36"/><rect class="cls-2" x="26.58" y="27.01" width="4.9" height="4.36"/><rect class="cls-2" x="33.12" y="27.01" width="4.9" height="4.36"/><rect class="cls-2" x="39.66" y="27.01" width="4.9" height="4.36"/><rect class="cls-2" x="20.03" y="32.83" width="4.9" height="4.36"/><rect class="cls-2" x="26.58" y="32.83" width="4.9" height="4.36"/><rect class="cls-2" x="33.12" y="32.83" width="4.9" height="4.36"/><rect class="cls-2" x="39.66" y="32.83" width="4.9" height="4.36"/><rect class="cls-2" x="20.03" y="38.65" width="4.9" height="4.35"/><rect class="cls-2" x="26.58" y="38.65" width="4.9" height="4.35"/><rect class="cls-2" x="33.12" y="38.65" width="4.9" height="4.35"/><rect class="cls-2" x="39.66" y="38.65" width="4.9" height="4.35"/></svg>