<svg id="Capa_1" enable-background="new 0 0 512 512" height="512" viewBox="0 0 512 512" width="512" xmlns="http://www.w3.org/2000/svg"><g><path d="m211 118.715-6.48 17.285h12.96z"/><path d="m391 288.937v-257.937c0-8.284-6.716-15-15-15h-240c-8.284 0-15 6.716-15 15v257.93l135 84.375zm-105-197.937h15v-15c0-8.291 6.709-15 15-15s15 6.709 15 15v15h15c8.291 0 15 6.709 15 15s-6.709 15-15 15h-15v15c0 8.291-6.709 15-15 15s-15-6.709-15-15v-15h-15c-8.291 0-15-6.709-15-15s6.709-15 15-15zm-125.273 119.048c-7.749-2.915-11.675-11.558-8.774-19.321l45-120c4.395-11.689 23.701-11.689 28.096 0l45 120c2.9 7.764-1.025 16.406-8.774 19.321-7.866 2.908-16.443-1.095-19.321-8.774l-13.226-35.274h-35.457l-13.224 35.273c-2.914 7.764-11.586 11.617-19.32 8.775zm20.273 45.952c0-8.291 6.709-15 15-15h120c8.291 0 15 6.709 15 15s-6.709 15-15 15h-120c-8.291 0-15-6.709-15-15z"/><path d="m256 406c-2.754 0-5.522-.762-7.954-2.285l-248.046-154.404v231.689c0 8.291 6.709 15 15 15h482c8.291 0 15-6.709 15-15v-231.685l-248.046 154.4c-2.432 1.523-5.2 2.285-7.954 2.285z"/><path d="m421 166.007v104.18l76.769-47.353z"/><path d="m91 166.007-76.767 56.825 76.767 47.353z"/></g></svg>