<svg id="Layer_1" data-name="Layer 1" xmlns="http://www.w3.org/2000/svg" viewBox="0 0 64.21 64.21"><defs><style>.cls-1{fill:#f8ec1a;}.cls-2{fill:#201c50;}</style></defs><circle class="cls-1" cx="32.11" cy="32.11" r="32.11"/><path class="cls-2" d="M46.5,21a5.15,5.15,0,1,1-5.15-5.15A5.15,5.15,0,0,1,46.5,21Zm0,0"/><path class="cls-2" d="M41.35,27.34A6.34,6.34,0,1,1,47.69,21a6.35,6.35,0,0,1-6.34,6.34Zm0-10.3a4,4,0,1,0,4,4,4,4,0,0,0-4-4Zm0,0"/><path class="cls-2" d="M46.5,46.35a5.15,5.15,0,1,1-5.15-5.15,5.15,5.15,0,0,1,5.15,5.15Zm0,0"/><path class="cls-2" d="M41.35,52.69a6.34,6.34,0,1,1,6.34-6.34,6.35,6.35,0,0,1-6.34,6.34Zm0-10.3a4,4,0,1,0,4,4,4,4,0,0,0-4-4Zm0,0"/><path class="cls-2" d="M24.32,33.67a5.15,5.15,0,1,1-5.15-5.14,5.14,5.14,0,0,1,5.15,5.14Zm0,0"/><path class="cls-2" d="M19.17,40a6.34,6.34,0,1,1,6.34-6.34A6.34,6.34,0,0,1,19.17,40Zm0-10.3a4,4,0,1,0,4,4,4,4,0,0,0-4-4Zm0,0"/><path class="cls-2" d="M22.92,32.91a1.56,1.56,0,0,1-1.38-.8A1.58,1.58,0,0,1,22.13,30l14.7-8.38a1.59,1.59,0,0,1,1.57,2.76L23.7,32.71a1.59,1.59,0,0,1-.78.2Zm0,0"/><path class="cls-2" d="M37.61,46a1.59,1.59,0,0,1-.78-.2L22.13,37.4a1.59,1.59,0,0,1,1.57-2.76L38.4,43A1.59,1.59,0,0,1,39,45.18a1.57,1.57,0,0,1-1.38.8Zm0,0"/></svg>